<svg xmlns="http://www.w3.org/2000/svg" xmlns:xlink="http://www.w3.org/1999/xlink" width="1080" zoomAndPan="magnify" viewBox="0 0 810 809.999993" height="1080" preserveAspectRatio="xMidYMid meet" version="1.2"><defs><clipPath id="7bf3ae3af1"><path d="M 210 446 L 531 446 L 531 762.226562 L 210 762.226562 Z M 210 446 "/></clipPath><clipPath id="29f2dac08f"><path d="M 280 46.851562 L 598 46.851562 L 598 365 L 280 365 Z M 280 46.851562 "/></clipPath><clipPath id="8f0622b46c"><path d="M 222 443 L 538 443 L 538 762 L 222 762 Z M 222 443 "/></clipPath><clipPath id="dad57deb92"><path d="M 26.796875 68.09375 L 740.984375 26.851562 L 782.226562 741.035156 L 68.039062 782.277344 Z M 26.796875 68.09375 "/></clipPath><clipPath id="aeb8d2ca46"><path d="M 26.796875 68.09375 L 740.984375 26.851562 L 782.226562 741.035156 L 68.039062 782.277344 Z M 26.796875 68.09375 "/></clipPath><clipPath id="f9dffd52d2"><path d="M 461 339 L 730 339 L 730 672 L 461 672 Z M 461 339 "/></clipPath><clipPath id="7b3b30e5e2"><path d="M 26.796875 68.09375 L 740.984375 26.851562 L 782.226562 741.035156 L 68.039062 782.277344 Z M 26.796875 68.09375 "/></clipPath><clipPath id="2fda4a5893"><path d="M 26.796875 68.09375 L 740.984375 26.851562 L 782.226562 741.035156 L 68.039062 782.277344 Z M 26.796875 68.09375 "/></clipPath><clipPath id="404e4bcf4a"><path d="M 400 200 L 710 200 L 710 450 L 400 450 Z M 400 200 "/></clipPath><clipPath id="503c9d94e8"><path d="M 26.796875 68.09375 L 740.984375 26.851562 L 782.226562 741.035156 L 68.039062 782.277344 Z M 26.796875 68.09375 "/></clipPath><clipPath id="6adae51e9a"><path d="M 26.796875 68.09375 L 740.984375 26.851562 L 782.226562 741.035156 L 68.039062 782.277344 Z M 26.796875 68.09375 "/></clipPath><clipPath id="65b650ad0f"><path d="M 272 48 L 585 48 L 585 368 L 272 368 Z M 272 48 "/></clipPath><clipPath id="dcd7cbd8a9"><path d="M 26.796875 68.09375 L 740.984375 26.851562 L 782.226562 741.035156 L 68.039062 782.277344 Z M 26.796875 68.09375 "/></clipPath><clipPath id="2844abbaee"><path d="M 26.796875 68.09375 L 740.984375 26.851562 L 782.226562 741.035156 L 68.039062 782.277344 Z M 26.796875 68.09375 "/></clipPath><clipPath id="ed51dee6ee"><path d="M 80 140 L 354 140 L 354 474 L 80 474 Z M 80 140 "/></clipPath><clipPath id="9abfb7c6f3"><path d="M 26.796875 68.09375 L 740.984375 26.851562 L 782.226562 741.035156 L 68.039062 782.277344 Z M 26.796875 68.09375 "/></clipPath><clipPath id="ccbd1c0f83"><path d="M 26.796875 68.09375 L 740.984375 26.851562 L 782.226562 741.035156 L 68.039062 782.277344 Z M 26.796875 68.09375 "/></clipPath><clipPath id="a07d8f15d3"><path d="M 110 368 L 418 368 L 418 618 L 110 618 Z M 110 368 "/></clipPath><clipPath id="d2a1cb2c4e"><path d="M 26.796875 68.09375 L 740.984375 26.851562 L 782.226562 741.035156 L 68.039062 782.277344 Z M 26.796875 68.09375 "/></clipPath><clipPath id="7972fc76ea"><path d="M 26.796875 68.09375 L 740.984375 26.851562 L 782.226562 741.035156 L 68.039062 782.277344 Z M 26.796875 68.09375 "/></clipPath></defs><g id="5742f7371a"><g clip-rule="nonzero" clip-path="url(#7bf3ae3af1)"><path style=" stroke:none;fill-rule:evenodd;fill:#69554c;fill-opacity:1;" d="M 210.75 609.835938 C 210.75 609.835938 337.265625 661.585938 433.089844 574.324219 C 488.585938 524.003906 468.777344 467.796875 434.515625 451.199219 C 434.515625 451.199219 514.28125 419.4375 529.625 522.222656 C 543.542969 615.546875 380.804688 674.074219 408.105469 762.226562 C 408.105469 762.226562 331.734375 747.238281 340.121094 681.035156 C 339.941406 681.214844 251.792969 688.171875 210.75 609.835938 Z M 210.75 609.835938 "/></g><path style=" stroke:none;fill-rule:evenodd;fill:#69554c;fill-opacity:1;" d="M 489.65625 676.394531 C 489.65625 676.394531 596.71875 591.636719 567.8125 465.296875 C 551.21875 392.492188 492.511719 382.144531 461.28125 403.914062 C 461.28125 403.914062 472.703125 318.796875 569.777344 355.914062 C 658.105469 389.636719 629.195312 560.050781 719.488281 579.5 C 719.488281 579.5 668.8125 638.742188 615.457031 598.949219 C 615.457031 598.949219 578.339844 679.25 489.65625 676.394531 Z M 489.65625 676.394531 "/><path style=" stroke:none;fill-rule:evenodd;fill:#69554c;fill-opacity:1;" d="M 684.691406 466.011719 C 684.691406 466.011719 663.28125 331.109375 539.082031 294.527344 C 467.351562 273.292969 429.519531 319.332031 433.265625 357.160156 C 433.265625 357.160156 364.746094 305.234375 444.6875 238.855469 C 517.136719 178.539062 651.679688 287.210938 712.886719 218.15625 C 712.886719 218.15625 739.472656 291.316406 678.804688 318.441406 C 678.804688 318.617188 730.550781 390.171875 684.691406 466.011719 Z M 684.691406 466.011719 "/><g clip-rule="nonzero" clip-path="url(#29f2dac08f)"><path style=" stroke:none;fill-rule:evenodd;fill:#69554c;fill-opacity:1;" d="M 597.078125 192.996094 C 597.078125 192.996094 468.957031 145.527344 376.164062 235.640625 C 322.453125 287.746094 343.867188 343.421875 378.664062 358.765625 C 378.664062 358.765625 299.96875 393.027344 281.414062 290.78125 C 264.28125 197.8125 425.058594 134.109375 394.902344 46.851562 C 394.902344 46.851562 471.8125 59.519531 465.566406 125.722656 C 465.386719 125.722656 553.359375 115.90625 597.078125 192.996094 Z M 597.078125 192.996094 "/></g><path style=" stroke:none;fill-rule:evenodd;fill:#69554c;fill-opacity:1;" d="M 316.03125 135.359375 C 316.03125 135.359375 211.820312 223.6875 244.832031 348.953125 C 263.925781 421.222656 322.988281 429.789062 353.324219 406.945312 C 353.324219 406.945312 344.582031 492.421875 246.257812 458.515625 C 157.039062 427.824219 180.234375 256.339844 89.585938 239.925781 C 89.585938 239.925781 138.125 179.253906 192.90625 217.085938 C 192.726562 217.085938 227.34375 135.714844 316.03125 135.359375 Z M 316.03125 135.359375 "/><path style=" stroke:none;fill-rule:evenodd;fill:#69554c;fill-opacity:1;" d="M 127.953125 352.164062 C 127.953125 352.164062 153.828125 486.355469 279.09375 519.007812 C 351.539062 537.746094 387.765625 490.457031 382.945312 452.808594 C 382.945312 452.808594 453.074219 502.234375 375.453125 571.472656 C 304.789062 633.925781 166.851562 529.535156 107.789062 600.734375 C 107.789062 600.734375 78.703125 528.464844 138.480469 499.558594 C 138.660156 499.378906 84.769531 429.429688 127.953125 352.164062 Z M 127.953125 352.164062 "/><g clip-rule="nonzero" clip-path="url(#8f0622b46c)"><g clip-rule="nonzero" clip-path="url(#dad57deb92)"><g clip-rule="nonzero" clip-path="url(#aeb8d2ca46)"><path style=" stroke:none;fill-rule:evenodd;fill:#eab31b;fill-opacity:1;" d="M 222.882812 620.695312 C 222.882812 620.695312 352.171875 665.0625 442.804688 572.425781 C 495.308594 518.988281 472.292969 464.015625 437.132812 449.421875 C 437.132812 449.421875 514.929688 413.113281 536.175781 514.839844 C 555.453125 607.207031 396.359375 675.023438 428.695312 761.453125 C 428.695312 761.453125 351.585938 750.890625 356.140625 684.316406 C 355.972656 684.503906 268.371094 696.535156 222.882812 620.695312 Z M 222.882812 620.695312 "/></g></g></g><g clip-rule="nonzero" clip-path="url(#f9dffd52d2)"><g clip-rule="nonzero" clip-path="url(#7b3b30e5e2)"><g clip-rule="nonzero" clip-path="url(#2fda4a5893)"><path style=" stroke:none;fill-rule:evenodd;fill:#eab31b;fill-opacity:1;" d="M 505.160156 671.0625 C 505.160156 671.0625 607.160156 580.269531 571.019531 455.808594 C 550.253906 384.082031 491.046875 377.136719 461.125 400.671875 C 461.125 400.671875 467.621094 315.035156 566.671875 346.492188 C 656.796875 375.070312 637.761719 546.867188 729.027344 561.078125 C 729.027344 561.078125 681.847656 623.144531 626.289062 586.496094 C 626.289062 586.496094 593.863281 668.800781 505.160156 671.0625 Z M 505.160156 671.0625 "/></g></g></g><g clip-rule="nonzero" clip-path="url(#404e4bcf4a)"><g clip-rule="nonzero" clip-path="url(#503c9d94e8)"><g clip-rule="nonzero" clip-path="url(#6adae51e9a)"><path style=" stroke:none;fill-rule:evenodd;fill:#eab31b;fill-opacity:1;" d="M 687.746094 449.785156 C 687.746094 449.785156 658.589844 316.339844 532.492188 286.980469 C 459.652344 269.917969 424.539062 318.058594 430.460938 355.609375 C 430.460938 355.609375 359.0625 307.722656 435.042969 236.84375 C 503.894531 172.453125 644.480469 273.1875 701.601562 200.714844 C 701.601562 200.714844 732.363281 272.222656 673.359375 302.796875 C 673.371094 302.976562 729.15625 371.429688 687.746094 449.785156 Z M 687.746094 449.785156 "/></g></g></g><g clip-rule="nonzero" clip-path="url(#65b650ad0f)"><g clip-rule="nonzero" clip-path="url(#dcd7cbd8a9)"><g clip-rule="nonzero" clip-path="url(#2844abbaee)"><path style=" stroke:none;fill-rule:evenodd;fill:#eab31b;fill-opacity:1;" d="M 584.535156 182.273438 C 584.535156 182.273438 453.890625 142.273438 366.449219 237.585938 C 315.832031 292.699219 340.417969 347.046875 376.042969 360.363281 C 376.042969 360.363281 299.457031 399.101562 275.035156 298.09375 C 252.570312 206.269531 409.410156 133.402344 374.273438 48.027344 C 374.273438 48.027344 451.78125 56.242188 449.363281 122.695312 C 449.1875 122.703125 536.445312 107.835938 584.535156 182.273438 Z M 584.535156 182.273438 "/></g></g></g><g clip-rule="nonzero" clip-path="url(#ed51dee6ee)"><g clip-rule="nonzero" clip-path="url(#9abfb7c6f3)"><g clip-rule="nonzero" clip-path="url(#ccbd1c0f83)"><path style=" stroke:none;fill-rule:evenodd;fill:#eab31b;fill-opacity:1;" d="M 300.632812 140.933594 C 300.632812 140.933594 201.6875 235.125 241.867188 358.28125 C 265.09375 429.328125 324.554688 434.472656 353.523438 409.921875 C 353.523438 409.921875 349.722656 495.757812 249.609375 467.578125 C 158.765625 442.082031 172.039062 269.546875 80.59375 258.382812 C 80.59375 258.382812 125.554688 195.015625 182.425781 229.625 C 182.246094 229.632812 212.117188 146.402344 300.632812 140.933594 Z M 300.632812 140.933594 "/></g></g></g><g clip-rule="nonzero" clip-path="url(#a07d8f15d3)"><g clip-rule="nonzero" clip-path="url(#d2a1cb2c4e)"><g clip-rule="nonzero" clip-path="url(#7972fc76ea)"><path style=" stroke:none;fill-rule:evenodd;fill:#eab31b;fill-opacity:1;" d="M 125.367188 368.226562 C 125.367188 368.226562 158.933594 500.699219 285.875 526.078125 C 359.28125 540.605469 392.71875 491.308594 385.738281 454 C 385.738281 454 458.601562 499.300781 385.097656 572.898438 C 318.152344 639.320312 174.429688 543.058594 119.566406 617.542969 C 119.566406 617.542969 86.363281 547.070312 144.375 514.765625 C 144.542969 514.578125 86.710938 447.851562 125.367188 368.226562 Z M 125.367188 368.226562 "/></g></g></g></g></svg>