<svg xmlns="http://www.w3.org/2000/svg" xmlns:xlink="http://www.w3.org/1999/xlink" width="1080" zoomAndPan="magnify" viewBox="0 0 810 809.999993" height="1080" preserveAspectRatio="xMidYMid meet" version="1.2"><defs><clipPath id="3553d88fa7"><path d="M 223 443 L 539 443 L 539 763 L 223 763 Z M 223 443 "/></clipPath><clipPath id="63cfa42bfb"><path d="M 26.796875 68.09375 L 741.855469 26.800781 L 783.148438 741.859375 L 68.089844 783.152344 Z M 26.796875 68.09375 "/></clipPath><clipPath id="3949c02fe5"><path d="M 26.796875 68.09375 L 741.855469 26.800781 L 783.148438 741.859375 L 68.089844 783.152344 Z M 26.796875 68.09375 "/></clipPath><clipPath id="5fd51a4c68"><path d="M 26.796875 68.09375 L 741.855469 26.800781 L 783.148438 741.859375 L 68.089844 783.152344 Z M 26.796875 68.09375 "/></clipPath><clipPath id="ea180a1b25"><path d="M 461 339 L 730 339 L 730 672 L 461 672 Z M 461 339 "/></clipPath><clipPath id="96af0ef819"><path d="M 26.796875 68.09375 L 741.855469 26.800781 L 783.148438 741.859375 L 68.089844 783.152344 Z M 26.796875 68.09375 "/></clipPath><clipPath id="0bd555b955"><path d="M 26.796875 68.09375 L 741.855469 26.800781 L 783.148438 741.859375 L 68.089844 783.152344 Z M 26.796875 68.09375 "/></clipPath><clipPath id="ae6952c962"><path d="M 26.796875 68.09375 L 741.855469 26.800781 L 783.148438 741.859375 L 68.089844 783.152344 Z M 26.796875 68.09375 "/></clipPath><clipPath id="fd5e18c588"><path d="M 400 200 L 711 200 L 711 451 L 400 451 Z M 400 200 "/></clipPath><clipPath id="12c62c55d8"><path d="M 26.796875 68.09375 L 741.855469 26.800781 L 783.148438 741.859375 L 68.089844 783.152344 Z M 26.796875 68.09375 "/></clipPath><clipPath id="97e9a11851"><path d="M 26.796875 68.09375 L 741.855469 26.800781 L 783.148438 741.859375 L 68.089844 783.152344 Z M 26.796875 68.09375 "/></clipPath><clipPath id="1d9d08eece"><path d="M 26.796875 68.09375 L 741.855469 26.800781 L 783.148438 741.859375 L 68.089844 783.152344 Z M 26.796875 68.09375 "/></clipPath><clipPath id="63c9441531"><path d="M 273 48 L 586 48 L 586 369 L 273 369 Z M 273 48 "/></clipPath><clipPath id="7af11a150f"><path d="M 26.796875 68.09375 L 741.855469 26.800781 L 783.148438 741.859375 L 68.089844 783.152344 Z M 26.796875 68.09375 "/></clipPath><clipPath id="0f0ecba11e"><path d="M 26.796875 68.09375 L 741.855469 26.800781 L 783.148438 741.859375 L 68.089844 783.152344 Z M 26.796875 68.09375 "/></clipPath><clipPath id="e75c1c7151"><path d="M 26.796875 68.09375 L 741.855469 26.800781 L 783.148438 741.859375 L 68.089844 783.152344 Z M 26.796875 68.09375 "/></clipPath><clipPath id="b1a3d32003"><path d="M 80 141 L 354 141 L 354 474 L 80 474 Z M 80 141 "/></clipPath><clipPath id="8be2a6fab1"><path d="M 26.796875 68.09375 L 741.855469 26.800781 L 783.148438 741.859375 L 68.089844 783.152344 Z M 26.796875 68.09375 "/></clipPath><clipPath id="03d6516e20"><path d="M 26.796875 68.09375 L 741.855469 26.800781 L 783.148438 741.859375 L 68.089844 783.152344 Z M 26.796875 68.09375 "/></clipPath><clipPath id="710f3aea57"><path d="M 26.796875 68.09375 L 741.855469 26.800781 L 783.148438 741.859375 L 68.089844 783.152344 Z M 26.796875 68.09375 "/></clipPath><clipPath id="7b98182776"><path d="M 110 368 L 419 368 L 419 619 L 110 619 Z M 110 368 "/></clipPath><clipPath id="2681eb262a"><path d="M 26.796875 68.09375 L 741.855469 26.800781 L 783.148438 741.859375 L 68.089844 783.152344 Z M 26.796875 68.09375 "/></clipPath><clipPath id="8f333ba015"><path d="M 26.796875 68.09375 L 741.855469 26.800781 L 783.148438 741.859375 L 68.089844 783.152344 Z M 26.796875 68.09375 "/></clipPath><clipPath id="257d68a73b"><path d="M 26.796875 68.09375 L 741.855469 26.800781 L 783.148438 741.859375 L 68.089844 783.152344 Z M 26.796875 68.09375 "/></clipPath><clipPath id="a6b1896751"><path d="M 210 447 L 532 447 L 532 763.101562 L 210 763.101562 Z M 210 447 "/></clipPath><clipPath id="18c79269df"><path d="M 280 46.851562 L 598 46.851562 L 598 365 L 280 365 Z M 280 46.851562 "/></clipPath></defs><g id="356e6b4ba8"><g clip-rule="nonzero" clip-path="url(#3553d88fa7)"><g clip-rule="nonzero" clip-path="url(#63cfa42bfb)"><g clip-rule="nonzero" clip-path="url(#3949c02fe5)"><g clip-rule="nonzero" clip-path="url(#5fd51a4c68)"><path style=" stroke:none;fill-rule:evenodd;fill:#000000;fill-opacity:1;" d="M 223.121094 621.371094 C 223.121094 621.371094 352.566406 665.792969 443.3125 573.042969 C 495.878906 519.539062 472.835938 464.5 437.632812 449.886719 C 437.632812 449.886719 515.527344 413.535156 536.800781 515.386719 C 556.097656 607.867188 396.808594 675.765625 429.1875 762.300781 C 429.1875 762.300781 351.984375 751.726562 356.542969 685.070312 C 356.375 685.257812 268.667969 697.300781 223.121094 621.371094 Z M 223.121094 621.371094 "/></g></g></g></g><g clip-rule="nonzero" clip-path="url(#ea180a1b25)"><g clip-rule="nonzero" clip-path="url(#96af0ef819)"><g clip-rule="nonzero" clip-path="url(#0bd555b955)"><g clip-rule="nonzero" clip-path="url(#ae6952c962)"><path style=" stroke:none;fill-rule:evenodd;fill:#000000;fill-opacity:1;" d="M 505.746094 671.800781 C 505.746094 671.800781 607.871094 580.898438 571.683594 456.285156 C 550.894531 384.46875 491.613281 377.515625 461.65625 401.078125 C 461.65625 401.078125 468.160156 315.339844 567.332031 346.835938 C 657.566406 375.445312 638.507812 547.453125 729.882812 561.683594 C 729.882812 561.683594 682.648438 623.824219 627.019531 587.128906 C 627.019531 587.128906 594.554688 669.535156 505.746094 671.800781 Z M 505.746094 671.800781 "/></g></g></g></g><g clip-rule="nonzero" clip-path="url(#fd5e18c588)"><g clip-rule="nonzero" clip-path="url(#12c62c55d8)"><g clip-rule="nonzero" clip-path="url(#97e9a11851)"><g clip-rule="nonzero" clip-path="url(#1d9d08eece)"><path style=" stroke:none;fill-rule:evenodd;fill:#000000;fill-opacity:1;" d="M 688.550781 450.25 C 688.550781 450.25 659.363281 316.644531 533.109375 287.25 C 460.183594 270.164062 425.027344 318.367188 430.957031 355.960938 C 430.957031 355.960938 359.464844 308.015625 435.542969 237.046875 C 504.476562 172.578125 645.234375 273.4375 702.425781 200.878906 C 702.425781 200.878906 733.226562 272.472656 674.148438 303.085938 C 674.160156 303.261719 730.015625 371.800781 688.550781 450.25 Z M 688.550781 450.25 "/></g></g></g></g><g clip-rule="nonzero" clip-path="url(#63c9441531)"><g clip-rule="nonzero" clip-path="url(#7af11a150f)"><g clip-rule="nonzero" clip-path="url(#0f0ecba11e)"><g clip-rule="nonzero" clip-path="url(#e75c1c7151)"><path style=" stroke:none;fill-rule:evenodd;fill:#000000;fill-opacity:1;" d="M 585.21875 182.414062 C 585.21875 182.414062 454.414062 142.363281 366.863281 237.792969 C 316.183594 292.976562 340.800781 347.390625 376.46875 360.71875 C 376.46875 360.71875 299.789062 399.507812 275.335938 298.375 C 252.847656 206.4375 409.875 133.480469 374.695312 48.003906 C 374.695312 48.003906 452.300781 56.226562 449.878906 122.761719 C 449.703125 122.769531 537.070312 107.882812 585.21875 182.414062 Z M 585.21875 182.414062 "/></g></g></g></g><g clip-rule="nonzero" clip-path="url(#b1a3d32003)"><g clip-rule="nonzero" clip-path="url(#8be2a6fab1)"><g clip-rule="nonzero" clip-path="url(#03d6516e20)"><g clip-rule="nonzero" clip-path="url(#710f3aea57)"><path style=" stroke:none;fill-rule:evenodd;fill:#000000;fill-opacity:1;" d="M 300.96875 141.023438 C 300.96875 141.023438 201.902344 235.328125 242.128906 358.632812 C 265.386719 429.769531 324.917969 434.921875 353.921875 410.339844 C 353.921875 410.339844 350.117188 496.28125 249.882812 468.066406 C 158.929688 442.539062 172.214844 269.792969 80.660156 258.617188 C 80.660156 258.617188 125.671875 195.171875 182.613281 229.820312 C 182.4375 229.832031 212.34375 146.5 300.96875 141.023438 Z M 300.96875 141.023438 "/></g></g></g></g><g clip-rule="nonzero" clip-path="url(#7b98182776)"><g clip-rule="nonzero" clip-path="url(#2681eb262a)"><g clip-rule="nonzero" clip-path="url(#8f333ba015)"><g clip-rule="nonzero" clip-path="url(#257d68a73b)"><path style=" stroke:none;fill-rule:evenodd;fill:#000000;fill-opacity:1;" d="M 125.488281 368.589844 C 125.488281 368.589844 159.09375 501.226562 286.191406 526.636719 C 359.6875 541.183594 393.167969 491.828125 386.179688 454.46875 C 386.179688 454.46875 459.128906 499.828125 385.535156 573.515625 C 318.507812 640.019531 174.609375 543.640625 119.679688 618.214844 C 119.679688 618.214844 86.433594 547.65625 144.519531 515.3125 C 144.6875 515.125 86.785156 448.316406 125.488281 368.589844 Z M 125.488281 368.589844 "/></g></g></g></g><g clip-rule="nonzero" clip-path="url(#a6b1896751)"><path style=" stroke:none;fill-rule:evenodd;fill:#000000;fill-opacity:1;" d="M 210.949219 610.523438 C 210.949219 610.523438 337.621094 662.335938 433.5625 574.96875 C 489.125 524.589844 469.292969 468.308594 434.988281 451.695312 C 434.988281 451.695312 514.851562 419.894531 530.214844 522.800781 C 544.152344 616.242188 381.214844 674.839844 408.546875 763.101562 C 408.546875 763.101562 332.082031 748.09375 340.480469 681.808594 C 340.300781 681.988281 252.042969 688.957031 210.949219 610.523438 Z M 210.949219 610.523438 "/></g><path style=" stroke:none;fill-rule:evenodd;fill:#000000;fill-opacity:1;" d="M 490.195312 677.164062 C 490.195312 677.164062 597.390625 592.300781 568.449219 465.808594 C 551.832031 392.914062 493.054688 382.554688 461.789062 404.351562 C 461.789062 404.351562 473.222656 319.128906 570.414062 356.289062 C 658.851562 390.058594 629.910156 560.675781 720.3125 580.152344 C 720.3125 580.152344 669.570312 639.46875 616.152344 599.625 C 616.152344 599.625 578.992188 680.023438 490.195312 677.164062 Z M 490.195312 677.164062 "/><path style=" stroke:none;fill-rule:evenodd;fill:#000000;fill-opacity:1;" d="M 685.472656 466.523438 C 685.472656 466.523438 664.03125 331.457031 539.683594 294.832031 C 467.863281 273.570312 429.988281 319.664062 433.738281 357.539062 C 433.738281 357.539062 365.132812 305.550781 445.171875 239.089844 C 517.710938 178.703125 652.417969 287.503906 713.699219 218.363281 C 713.699219 218.363281 740.320312 291.613281 679.574219 318.769531 C 679.578125 318.949219 731.386719 390.59375 685.472656 466.523438 Z M 685.472656 466.523438 "/><g clip-rule="nonzero" clip-path="url(#18c79269df)"><path style=" stroke:none;fill-rule:evenodd;fill:#000000;fill-opacity:1;" d="M 597.75 193.171875 C 597.75 193.171875 469.472656 145.648438 376.566406 235.871094 C 322.792969 288.042969 344.230469 343.785156 379.070312 359.148438 C 379.070312 359.148438 300.28125 393.453125 281.699219 291.078125 C 264.546875 197.996094 425.519531 134.214844 395.328125 46.851562 C 395.328125 46.851562 472.328125 59.535156 466.078125 125.816406 C 465.898438 125.816406 553.976562 115.992188 597.75 193.171875 Z M 597.75 193.171875 "/></g><path style=" stroke:none;fill-rule:evenodd;fill:#000000;fill-opacity:1;" d="M 316.359375 135.464844 C 316.359375 135.464844 212.023438 223.902344 245.074219 349.320312 C 264.191406 421.679688 323.328125 430.253906 353.699219 407.386719 C 353.699219 407.386719 344.945312 492.964844 246.503906 459.019531 C 157.171875 428.289062 180.398438 256.597656 89.640625 240.160156 C 89.640625 240.160156 138.234375 179.417969 193.082031 217.292969 C 192.90625 217.292969 227.566406 135.824219 316.359375 135.464844 Z M 316.359375 135.464844 "/><path style=" stroke:none;fill-rule:evenodd;fill:#000000;fill-opacity:1;" d="M 128.050781 352.539062 C 128.050781 352.539062 153.957031 486.890625 279.375 519.585938 C 351.914062 538.34375 388.179688 491 383.355469 453.300781 C 383.355469 453.300781 453.570312 502.792969 375.851562 572.113281 C 305.105469 634.644531 167 530.125 107.863281 601.414062 C 107.863281 601.414062 78.742188 529.054688 138.59375 500.113281 C 138.769531 499.933594 84.816406 429.898438 128.050781 352.539062 Z M 128.050781 352.539062 "/></g></svg>