<svg xmlns="http://www.w3.org/2000/svg" xmlns:xlink="http://www.w3.org/1999/xlink" width="1080" zoomAndPan="magnify" viewBox="0 0 810 299.999988" height="400" preserveAspectRatio="xMidYMid meet" version="1.2"><defs><clipPath id="80fc6b23b5"><path d="M 110 15.054688 L 231 15.054688 L 231 135 L 110 135 Z M 110 15.054688 "/></clipPath><clipPath id="df185a4a9d"><path d="M 88 164 L 208 164 L 208 285 L 88 285 Z M 88 164 "/></clipPath><clipPath id="e2c35e3280"><path d="M 15 23.058594 L 284.859375 7.476562 L 300.441406 277.335938 L 30.582031 292.917969 Z M 15 23.058594 "/></clipPath><clipPath id="96d46315ec"><path d="M 15 23.058594 L 284.859375 7.476562 L 300.441406 277.335938 L 30.582031 292.917969 Z M 15 23.058594 "/></clipPath><clipPath id="15e99a3415"><path d="M 178 125 L 280 125 L 280 251 L 178 251 Z M 178 125 "/></clipPath><clipPath id="69c4e391e9"><path d="M 15 23.058594 L 284.859375 7.476562 L 300.441406 277.335938 L 30.582031 292.917969 Z M 15 23.058594 "/></clipPath><clipPath id="145717ee0d"><path d="M 15 23.058594 L 284.859375 7.476562 L 300.441406 277.335938 L 30.582031 292.917969 Z M 15 23.058594 "/></clipPath><clipPath id="facc27c34b"><path d="M 155 73 L 273 73 L 273 168 L 155 168 Z M 155 73 "/></clipPath><clipPath id="b096117d5c"><path d="M 15 23.058594 L 284.859375 7.476562 L 300.441406 277.335938 L 30.582031 292.917969 Z M 15 23.058594 "/></clipPath><clipPath id="4d3e1481d8"><path d="M 15 23.058594 L 284.859375 7.476562 L 300.441406 277.335938 L 30.582031 292.917969 Z M 15 23.058594 "/></clipPath><clipPath id="e7feb5915a"><path d="M 107 15 L 226 15 L 226 137 L 107 137 Z M 107 15 "/></clipPath><clipPath id="21977d0414"><path d="M 15 23.058594 L 284.859375 7.476562 L 300.441406 277.335938 L 30.582031 292.917969 Z M 15 23.058594 "/></clipPath><clipPath id="49f28cf9b8"><path d="M 15 23.058594 L 284.859375 7.476562 L 300.441406 277.335938 L 30.582031 292.917969 Z M 15 23.058594 "/></clipPath><clipPath id="7afc9cf794"><path d="M 35 50 L 139 50 L 139 176 L 35 176 Z M 35 50 "/></clipPath><clipPath id="ccf0163f1b"><path d="M 15 23.058594 L 284.859375 7.476562 L 300.441406 277.335938 L 30.582031 292.917969 Z M 15 23.058594 "/></clipPath><clipPath id="200577470a"><path d="M 15 23.058594 L 284.859375 7.476562 L 300.441406 277.335938 L 30.582031 292.917969 Z M 15 23.058594 "/></clipPath><clipPath id="e5aad1026f"><path d="M 46 136 L 163 136 L 163 231 L 46 231 Z M 46 136 "/></clipPath><clipPath id="b3700bce95"><path d="M 15 23.058594 L 284.859375 7.476562 L 300.441406 277.335938 L 30.582031 292.917969 Z M 15 23.058594 "/></clipPath><clipPath id="ae62006798"><path d="M 15 23.058594 L 284.859375 7.476562 L 300.441406 277.335938 L 30.582031 292.917969 Z M 15 23.058594 "/></clipPath></defs><g id="80b81332a0"><path style=" stroke:none;fill-rule:evenodd;fill:#69554c;fill-opacity:1;" d="M 84.390625 227.453125 C 84.390625 227.453125 132.121094 246.972656 168.269531 214.054688 C 189.207031 195.070312 181.734375 173.863281 168.808594 167.601562 C 168.808594 167.601562 198.902344 155.621094 204.691406 194.398438 C 209.941406 229.605469 148.546875 251.6875 158.84375 284.941406 C 158.84375 284.941406 130.03125 279.289062 133.195312 254.3125 C 133.128906 254.378906 99.871094 257.003906 84.390625 227.453125 Z M 84.390625 227.453125 "/><path style=" stroke:none;fill-rule:evenodd;fill:#69554c;fill-opacity:1;" d="M 189.609375 252.5625 C 189.609375 252.5625 230.003906 220.585938 219.097656 172.921875 C 212.835938 145.453125 190.6875 141.550781 178.90625 149.761719 C 178.90625 149.761719 183.214844 117.652344 219.839844 131.65625 C 253.160156 144.378906 242.253906 208.667969 276.320312 216.007812 C 276.320312 216.007812 257.199219 238.355469 237.070312 223.34375 C 237.070312 223.34375 223.070312 253.640625 189.609375 252.5625 Z M 189.609375 252.5625 "/><path style=" stroke:none;fill-rule:evenodd;fill:#69554c;fill-opacity:1;" d="M 263.191406 173.191406 C 263.191406 173.191406 255.113281 122.296875 208.257812 108.496094 C 181.195312 100.484375 166.925781 117.855469 168.335938 132.125 C 168.335938 132.125 142.488281 112.535156 172.644531 87.492188 C 199.976562 64.738281 250.738281 105.734375 273.828125 79.683594 C 273.828125 79.683594 283.859375 107.285156 260.972656 117.515625 C 260.972656 117.585938 280.492188 144.578125 263.191406 173.191406 Z M 263.191406 173.191406 "/><g clip-rule="nonzero" clip-path="url(#80fc6b23b5)"><path style=" stroke:none;fill-rule:evenodd;fill:#69554c;fill-opacity:1;" d="M 230.136719 70.191406 C 230.136719 70.191406 181.800781 52.285156 146.796875 86.28125 C 126.53125 105.9375 134.609375 126.941406 147.738281 132.730469 C 147.738281 132.730469 118.050781 145.65625 111.046875 107.082031 C 104.585938 72.007812 165.242188 47.976562 153.863281 15.054688 C 153.863281 15.054688 182.878906 19.835938 180.523438 44.8125 C 180.457031 44.8125 213.644531 41.109375 230.136719 70.191406 Z M 230.136719 70.191406 "/></g><path style=" stroke:none;fill-rule:evenodd;fill:#69554c;fill-opacity:1;" d="M 124.109375 48.445312 C 124.109375 48.445312 84.792969 81.769531 97.246094 129.027344 C 104.449219 156.292969 126.734375 159.523438 138.179688 150.90625 C 138.179688 150.90625 134.878906 183.15625 97.785156 170.363281 C 64.125 158.785156 72.878906 94.089844 38.679688 87.894531 C 38.679688 87.894531 56.988281 65.007812 77.65625 79.277344 C 77.589844 79.277344 90.648438 48.582031 124.109375 48.445312 Z M 124.109375 48.445312 "/><path style=" stroke:none;fill-rule:evenodd;fill:#69554c;fill-opacity:1;" d="M 53.152344 130.242188 C 53.152344 130.242188 62.914062 180.867188 110.171875 193.183594 C 137.503906 200.253906 151.171875 182.414062 149.351562 168.210938 C 149.351562 168.210938 175.808594 186.855469 146.527344 212.976562 C 119.867188 236.539062 67.828125 197.15625 45.546875 224.019531 C 45.546875 224.019531 34.570312 196.753906 57.125 185.847656 C 57.191406 185.78125 36.859375 159.390625 53.152344 130.242188 Z M 53.152344 130.242188 "/><g clip-rule="nonzero" clip-path="url(#df185a4a9d)"><g clip-rule="nonzero" clip-path="url(#e2c35e3280)"><g clip-rule="nonzero" clip-path="url(#96d46315ec)"><path style=" stroke:none;fill-rule:evenodd;fill:#eab31b;fill-opacity:1;" d="M 88.976562 231.539062 C 88.976562 231.539062 137.753906 248.277344 171.945312 213.328125 C 191.753906 193.167969 183.070312 172.425781 169.804688 166.921875 C 169.804688 166.921875 199.15625 153.222656 207.171875 191.601562 C 214.445312 226.449219 154.421875 252.035156 166.621094 284.640625 C 166.621094 284.640625 137.53125 280.65625 139.25 255.539062 C 139.1875 255.609375 106.136719 260.148438 88.976562 231.539062 Z M 88.976562 231.539062 "/></g></g></g><g clip-rule="nonzero" clip-path="url(#15e99a3415)"><g clip-rule="nonzero" clip-path="url(#69c4e391e9)"><g clip-rule="nonzero" clip-path="url(#145717ee0d)"><path style=" stroke:none;fill-rule:evenodd;fill:#eab31b;fill-opacity:1;" d="M 195.46875 250.539062 C 195.46875 250.539062 233.953125 216.289062 220.316406 169.332031 C 212.484375 142.273438 190.144531 139.652344 178.859375 148.53125 C 178.859375 148.53125 181.308594 116.222656 218.675781 128.089844 C 252.679688 138.871094 245.496094 203.683594 279.925781 209.046875 C 279.925781 209.046875 262.128906 232.460938 241.167969 218.636719 C 241.167969 218.636719 228.933594 249.6875 195.46875 250.539062 Z M 195.46875 250.539062 "/></g></g></g><g clip-rule="nonzero" clip-path="url(#facc27c34b)"><g clip-rule="nonzero" clip-path="url(#b096117d5c)"><g clip-rule="nonzero" clip-path="url(#4d3e1481d8)"><path style=" stroke:none;fill-rule:evenodd;fill:#eab31b;fill-opacity:1;" d="M 264.355469 167.058594 C 264.355469 167.058594 253.355469 116.714844 205.78125 105.640625 C 178.300781 99.199219 165.054688 117.363281 167.289062 131.53125 C 167.289062 131.53125 140.351562 113.464844 169.015625 86.722656 C 194.992188 62.429688 248.03125 100.433594 269.582031 73.09375 C 269.582031 73.09375 281.1875 100.070312 258.925781 111.605469 C 258.929688 111.671875 279.976562 137.5 264.355469 167.058594 Z M 264.355469 167.058594 "/></g></g></g><g clip-rule="nonzero" clip-path="url(#e7feb5915a)"><g clip-rule="nonzero" clip-path="url(#21977d0414)"><g clip-rule="nonzero" clip-path="url(#49f28cf9b8)"><path style=" stroke:none;fill-rule:evenodd;fill:#eab31b;fill-opacity:1;" d="M 225.417969 66.136719 C 225.417969 66.136719 176.128906 51.046875 143.140625 87.003906 C 124.042969 107.796875 133.320312 128.300781 146.757812 133.324219 C 146.757812 133.324219 117.863281 147.9375 108.652344 109.832031 C 100.175781 75.1875 159.347656 47.699219 146.089844 15.488281 C 146.089844 15.488281 175.332031 18.589844 174.421875 43.660156 C 174.351562 43.664062 207.273438 38.050781 225.417969 66.136719 Z M 225.417969 66.136719 "/></g></g></g><g clip-rule="nonzero" clip-path="url(#7afc9cf794)"><g clip-rule="nonzero" clip-path="url(#ccf0163f1b)"><g clip-rule="nonzero" clip-path="url(#200577470a)"><path style=" stroke:none;fill-rule:evenodd;fill:#eab31b;fill-opacity:1;" d="M 118.308594 50.539062 C 118.308594 50.539062 80.980469 86.074219 96.136719 132.539062 C 104.902344 159.339844 127.335938 161.28125 138.261719 152.019531 C 138.261719 152.019531 136.828125 184.402344 99.058594 173.773438 C 64.789062 164.152344 69.792969 99.0625 35.296875 94.847656 C 35.296875 94.847656 52.257812 70.941406 73.710938 84 C 73.644531 84.003906 84.914062 52.601562 118.308594 50.539062 Z M 118.308594 50.539062 "/></g></g></g><g clip-rule="nonzero" clip-path="url(#e5aad1026f)"><g clip-rule="nonzero" clip-path="url(#b3700bce95)"><g clip-rule="nonzero" clip-path="url(#ae62006798)"><path style=" stroke:none;fill-rule:evenodd;fill:#eab31b;fill-opacity:1;" d="M 52.1875 136.289062 C 52.1875 136.289062 64.851562 186.265625 112.742188 195.84375 C 140.433594 201.324219 153.050781 182.726562 150.417969 168.648438 C 150.417969 168.648438 177.90625 185.738281 150.175781 213.503906 C 124.917969 238.566406 70.695312 202.25 50 230.347656 C 50 230.347656 37.472656 203.761719 59.359375 191.574219 C 59.421875 191.503906 37.601562 166.328125 52.1875 136.289062 Z M 52.1875 136.289062 "/></g></g></g><g style="fill:#eab31b;fill-opacity:1;"><g transform="translate(373.115547, 217.627337)"><path style="stroke:none" d="M 5.71875 0 L 5.71875 -25.328125 L 0.53125 -25.328125 L 0.53125 -28.1875 L 14.046875 -28.1875 L 14.046875 -25.328125 L 8.859375 -25.328125 L 8.859375 0 Z M 5.71875 0 "/></g></g><g style="fill:#eab31b;fill-opacity:1;"><g transform="translate(393.250745, 217.627337)"><path style="stroke:none" d="M 4.59375 -6.640625 C 4.59375 -5.359375 4.851562 -4.359375 5.375 -3.640625 C 5.894531 -2.929688 6.734375 -2.578125 7.890625 -2.578125 C 9.015625 -2.578125 9.835938 -2.929688 10.359375 -3.640625 C 10.890625 -4.359375 11.15625 -5.359375 11.15625 -6.640625 L 11.15625 -28.1875 L 14.09375 -28.1875 L 14.09375 -6.8125 C 14.09375 -4.65625 13.582031 -2.925781 12.5625 -1.625 C 11.539062 -0.320312 9.941406 0.328125 7.765625 0.328125 C 5.617188 0.328125 4.035156 -0.320312 3.015625 -1.625 C 1.992188 -2.925781 1.484375 -4.65625 1.484375 -6.8125 L 1.484375 -28.1875 L 4.59375 -28.1875 Z M 4.59375 -6.640625 "/></g></g><g style="fill:#eab31b;fill-opacity:1;"><g transform="translate(414.352352, 217.627337)"><path style="stroke:none" d=""/></g></g><g style="fill:#eab31b;fill-opacity:1;"><g transform="translate(426.111976, 217.627337)"><path style="stroke:none" d="M 4.75 -12.6875 L 4.75 0 L 1.609375 0 L 1.609375 -28.1875 L 4.75 -28.1875 L 4.75 -15.5 L 11.671875 -15.5 L 11.671875 -28.1875 L 14.8125 -28.1875 L 14.8125 0 L 11.671875 0 L 11.671875 -12.6875 Z M 4.75 -12.6875 "/></g></g><g style="fill:#eab31b;fill-opacity:1;"><g transform="translate(448.059193, 217.627337)"><path style="stroke:none" d="M 1.375 -21.375 C 1.375 -23.550781 1.898438 -25.273438 2.953125 -26.546875 C 4.015625 -27.828125 5.632812 -28.46875 7.8125 -28.46875 C 9.988281 -28.46875 11.613281 -27.828125 12.6875 -26.546875 C 13.757812 -25.273438 14.296875 -23.550781 14.296875 -21.375 L 14.296875 -6.8125 C 14.296875 -4.65625 13.757812 -2.929688 12.6875 -1.640625 C 11.613281 -0.359375 9.988281 0.28125 7.8125 0.28125 C 5.632812 0.28125 4.015625 -0.359375 2.953125 -1.640625 C 1.898438 -2.929688 1.375 -4.65625 1.375 -6.8125 Z M 4.46875 -6.640625 C 4.46875 -5.359375 4.742188 -4.359375 5.296875 -3.640625 C 5.847656 -2.929688 6.6875 -2.578125 7.8125 -2.578125 C 8.96875 -2.578125 9.8125 -2.929688 10.34375 -3.640625 C 10.882812 -4.359375 11.15625 -5.359375 11.15625 -6.640625 L 11.15625 -21.546875 C 11.15625 -22.828125 10.882812 -23.820312 10.34375 -24.53125 C 9.8125 -25.25 8.96875 -25.609375 7.8125 -25.609375 C 6.6875 -25.609375 5.847656 -25.25 5.296875 -24.53125 C 4.742188 -23.820312 4.46875 -22.828125 4.46875 -21.546875 Z M 4.46875 -6.640625 "/></g></g><g style="fill:#eab31b;fill-opacity:1;"><g transform="translate(469.241341, 217.627337)"><path style="stroke:none" d="M 7.53125 -28.46875 C 9.675781 -28.46875 11.257812 -27.828125 12.28125 -26.546875 C 13.300781 -25.273438 13.8125 -23.566406 13.8125 -21.421875 L 13.8125 -20.65625 L 10.828125 -20.65625 L 10.828125 -21.578125 C 10.828125 -22.867188 10.570312 -23.863281 10.0625 -24.5625 C 9.550781 -25.257812 8.734375 -25.609375 7.609375 -25.609375 C 6.484375 -25.609375 5.664062 -25.257812 5.15625 -24.5625 C 4.644531 -23.863281 4.390625 -22.882812 4.390625 -21.625 C 4.390625 -20.570312 4.625 -19.65625 5.09375 -18.875 C 5.5625 -18.101562 6.144531 -17.390625 6.84375 -16.734375 C 7.539062 -16.078125 8.296875 -15.429688 9.109375 -14.796875 C 9.929688 -14.160156 10.691406 -13.46875 11.390625 -12.71875 C 12.085938 -11.96875 12.671875 -11.113281 13.140625 -10.15625 C 13.609375 -9.207031 13.84375 -8.078125 13.84375 -6.765625 C 13.84375 -4.617188 13.328125 -2.90625 12.296875 -1.625 C 11.265625 -0.351562 9.660156 0.28125 7.484375 0.28125 C 5.316406 0.28125 3.722656 -0.351562 2.703125 -1.625 C 1.679688 -2.90625 1.171875 -4.617188 1.171875 -6.765625 L 1.171875 -8.375 L 4.109375 -8.375 L 4.109375 -6.609375 C 4.109375 -5.316406 4.375 -4.320312 4.90625 -3.625 C 5.445312 -2.925781 6.28125 -2.578125 7.40625 -2.578125 C 8.53125 -2.578125 9.359375 -2.925781 9.890625 -3.625 C 10.429688 -4.320312 10.703125 -5.316406 10.703125 -6.609375 C 10.703125 -7.648438 10.46875 -8.550781 10 -9.3125 C 9.53125 -10.082031 8.945312 -10.796875 8.25 -11.453125 C 7.550781 -12.109375 6.800781 -12.75 6 -13.375 C 5.195312 -14.007812 4.445312 -14.703125 3.75 -15.453125 C 3.050781 -16.210938 2.460938 -17.066406 1.984375 -18.015625 C 1.515625 -18.972656 1.28125 -20.109375 1.28125 -21.421875 C 1.28125 -23.597656 1.789062 -25.316406 2.8125 -26.578125 C 3.832031 -27.835938 5.40625 -28.46875 7.53125 -28.46875 Z M 7.53125 -28.46875 "/></g></g><g style="fill:#eab31b;fill-opacity:1;"><g transform="translate(489.738938, 217.627337)"><path style="stroke:none" d="M 5.71875 0 L 5.71875 -25.328125 L 0.53125 -25.328125 L 0.53125 -28.1875 L 14.046875 -28.1875 L 14.046875 -25.328125 L 8.859375 -25.328125 L 8.859375 0 Z M 5.71875 0 "/></g></g><g style="fill:#eab31b;fill-opacity:1;"><g transform="translate(509.874136, 217.627337)"><path style="stroke:none" d="M 4.75 -28.1875 L 4.75 0 L 1.609375 0 L 1.609375 -28.1875 Z M 4.75 -28.1875 "/></g></g><g style="fill:#eab31b;fill-opacity:1;"><g transform="translate(521.754571, 217.627337)"><path style="stroke:none" d="M 4.390625 0 L 1.578125 0 L 1.578125 -28.1875 L 5.5625 -28.1875 L 12.078125 -7.8125 L 12.078125 -28.1875 L 14.859375 -28.1875 L 14.859375 0 L 11.59375 0 L 4.390625 -22.796875 Z M 4.390625 0 "/></g></g><g style="fill:#eab31b;fill-opacity:1;"><g transform="translate(543.742058, 217.627337)"><path style="stroke:none" d="M 7.6875 -28.46875 C 9.863281 -28.46875 11.46875 -27.820312 12.5 -26.53125 C 13.53125 -25.25 14.046875 -23.53125 14.046875 -21.375 L 14.046875 -18.96875 L 11.078125 -18.96875 L 11.078125 -21.546875 C 11.078125 -22.828125 10.8125 -23.820312 10.28125 -24.53125 C 9.757812 -25.25 8.921875 -25.609375 7.765625 -25.609375 C 6.640625 -25.609375 5.804688 -25.25 5.265625 -24.53125 C 4.734375 -23.820312 4.46875 -22.828125 4.46875 -21.546875 L 4.46875 -6.640625 C 4.46875 -5.359375 4.734375 -4.359375 5.265625 -3.640625 C 5.804688 -2.929688 6.640625 -2.578125 7.765625 -2.578125 C 8.921875 -2.578125 9.757812 -2.929688 10.28125 -3.640625 C 10.8125 -4.359375 11.078125 -5.359375 11.078125 -6.640625 L 11.078125 -12.28125 L 8.171875 -12.28125 L 8.171875 -15.09375 L 14.046875 -15.09375 L 14.046875 -6.8125 C 14.046875 -4.65625 13.53125 -2.929688 12.5 -1.640625 C 11.46875 -0.359375 9.863281 0.28125 7.6875 0.28125 C 5.539062 0.28125 3.953125 -0.359375 2.921875 -1.640625 C 1.890625 -2.929688 1.375 -4.65625 1.375 -6.8125 L 1.375 -21.375 C 1.375 -22.445312 1.5 -23.421875 1.75 -24.296875 C 2.007812 -25.171875 2.398438 -25.914062 2.921875 -26.53125 C 3.441406 -27.15625 4.097656 -27.632812 4.890625 -27.96875 C 5.679688 -28.300781 6.613281 -28.46875 7.6875 -28.46875 Z M 7.6875 -28.46875 "/></g></g><g style="fill:#eab31b;fill-opacity:1;"><g transform="translate(564.682595, 217.627337)"><path style="stroke:none" d=""/></g></g><g style="fill:#eab31b;fill-opacity:1;"><g transform="translate(576.442209, 217.627337)"><path style="stroke:none" d="M 7.53125 -28.46875 C 9.675781 -28.46875 11.257812 -27.828125 12.28125 -26.546875 C 13.300781 -25.273438 13.8125 -23.566406 13.8125 -21.421875 L 13.8125 -20.65625 L 10.828125 -20.65625 L 10.828125 -21.578125 C 10.828125 -22.867188 10.570312 -23.863281 10.0625 -24.5625 C 9.550781 -25.257812 8.734375 -25.609375 7.609375 -25.609375 C 6.484375 -25.609375 5.664062 -25.257812 5.15625 -24.5625 C 4.644531 -23.863281 4.390625 -22.882812 4.390625 -21.625 C 4.390625 -20.570312 4.625 -19.65625 5.09375 -18.875 C 5.5625 -18.101562 6.144531 -17.390625 6.84375 -16.734375 C 7.539062 -16.078125 8.296875 -15.429688 9.109375 -14.796875 C 9.929688 -14.160156 10.691406 -13.46875 11.390625 -12.71875 C 12.085938 -11.96875 12.671875 -11.113281 13.140625 -10.15625 C 13.609375 -9.207031 13.84375 -8.078125 13.84375 -6.765625 C 13.84375 -4.617188 13.328125 -2.90625 12.296875 -1.625 C 11.265625 -0.351562 9.660156 0.28125 7.484375 0.28125 C 5.316406 0.28125 3.722656 -0.351562 2.703125 -1.625 C 1.679688 -2.90625 1.171875 -4.617188 1.171875 -6.765625 L 1.171875 -8.375 L 4.109375 -8.375 L 4.109375 -6.609375 C 4.109375 -5.316406 4.375 -4.320312 4.90625 -3.625 C 5.445312 -2.925781 6.28125 -2.578125 7.40625 -2.578125 C 8.53125 -2.578125 9.359375 -2.925781 9.890625 -3.625 C 10.429688 -4.320312 10.703125 -5.316406 10.703125 -6.609375 C 10.703125 -7.648438 10.46875 -8.550781 10 -9.3125 C 9.53125 -10.082031 8.945312 -10.796875 8.25 -11.453125 C 7.550781 -12.109375 6.800781 -12.75 6 -13.375 C 5.195312 -14.007812 4.445312 -14.703125 3.75 -15.453125 C 3.050781 -16.210938 2.460938 -17.066406 1.984375 -18.015625 C 1.515625 -18.972656 1.28125 -20.109375 1.28125 -21.421875 C 1.28125 -23.597656 1.789062 -25.316406 2.8125 -26.578125 C 3.832031 -27.835938 5.40625 -28.46875 7.53125 -28.46875 Z M 7.53125 -28.46875 "/></g></g><g style="fill:#eab31b;fill-opacity:1;"><g transform="translate(596.939817, 217.627337)"><path style="stroke:none" d="M 11.640625 -15.703125 L 11.640625 -12.890625 L 4.75 -12.890625 L 4.75 -2.859375 L 13.203125 -2.859375 L 13.203125 0 L 1.609375 0 L 1.609375 -28.1875 L 13.203125 -28.1875 L 13.203125 -25.328125 L 4.75 -25.328125 L 4.75 -15.703125 Z M 11.640625 -15.703125 "/></g></g><g style="fill:#eab31b;fill-opacity:1;"><g transform="translate(616.954226, 217.627337)"><path style="stroke:none" d="M 7.6875 -28.46875 C 9.863281 -28.46875 11.46875 -27.820312 12.5 -26.53125 C 13.53125 -25.25 14.046875 -23.53125 14.046875 -21.375 L 14.046875 -18.96875 L 11.078125 -18.96875 L 11.078125 -21.546875 C 11.078125 -22.828125 10.8125 -23.820312 10.28125 -24.53125 C 9.757812 -25.25 8.921875 -25.609375 7.765625 -25.609375 C 6.640625 -25.609375 5.804688 -25.25 5.265625 -24.53125 C 4.734375 -23.820312 4.46875 -22.828125 4.46875 -21.546875 L 4.46875 -6.640625 C 4.46875 -5.359375 4.734375 -4.359375 5.265625 -3.640625 C 5.804688 -2.929688 6.640625 -2.578125 7.765625 -2.578125 C 8.921875 -2.578125 9.757812 -2.929688 10.28125 -3.640625 C 10.8125 -4.359375 11.078125 -5.359375 11.078125 -6.640625 L 11.078125 -12.28125 L 8.171875 -12.28125 L 8.171875 -15.09375 L 14.046875 -15.09375 L 14.046875 -6.8125 C 14.046875 -4.65625 13.53125 -2.929688 12.5 -1.640625 C 11.46875 -0.359375 9.863281 0.28125 7.6875 0.28125 C 5.539062 0.28125 3.953125 -0.359375 2.921875 -1.640625 C 1.890625 -2.929688 1.375 -4.65625 1.375 -6.8125 L 1.375 -21.375 C 1.375 -22.445312 1.5 -23.421875 1.75 -24.296875 C 2.007812 -25.171875 2.398438 -25.914062 2.921875 -26.53125 C 3.441406 -27.15625 4.097656 -27.632812 4.890625 -27.96875 C 5.679688 -28.300781 6.613281 -28.46875 7.6875 -28.46875 Z M 7.6875 -28.46875 "/></g></g><g style="fill:#eab31b;fill-opacity:1;"><g transform="translate(637.894753, 217.627337)"><path style="stroke:none" d="M 4.59375 -6.640625 C 4.59375 -5.359375 4.851562 -4.359375 5.375 -3.640625 C 5.894531 -2.929688 6.734375 -2.578125 7.890625 -2.578125 C 9.015625 -2.578125 9.835938 -2.929688 10.359375 -3.640625 C 10.890625 -4.359375 11.15625 -5.359375 11.15625 -6.640625 L 11.15625 -28.1875 L 14.09375 -28.1875 L 14.09375 -6.8125 C 14.09375 -4.65625 13.582031 -2.925781 12.5625 -1.625 C 11.539062 -0.320312 9.941406 0.328125 7.765625 0.328125 C 5.617188 0.328125 4.035156 -0.320312 3.015625 -1.625 C 1.992188 -2.925781 1.484375 -4.65625 1.484375 -6.8125 L 1.484375 -28.1875 L 4.59375 -28.1875 Z M 4.59375 -6.640625 "/></g></g><g style="fill:#eab31b;fill-opacity:1;"><g transform="translate(658.99636, 217.627337)"><path style="stroke:none" d="M 7.890625 -28.1875 C 10.117188 -28.1875 11.722656 -27.632812 12.703125 -26.53125 C 13.679688 -25.4375 14.171875 -23.84375 14.171875 -21.75 L 14.171875 -19.453125 C 14.171875 -17.890625 13.890625 -16.625 13.328125 -15.65625 C 12.765625 -14.695312 11.878906 -14.03125 10.671875 -13.65625 C 11.960938 -13.28125 12.875 -12.585938 13.40625 -11.578125 C 13.945312 -10.566406 14.21875 -9.296875 14.21875 -7.765625 L 14.21875 -3.375 C 14.21875 -2.757812 14.242188 -2.160156 14.296875 -1.578125 C 14.347656 -1.003906 14.507812 -0.476562 14.78125 0 L 11.59375 0 C 11.40625 -0.40625 11.269531 -0.84375 11.1875 -1.3125 C 11.113281 -1.78125 11.078125 -2.484375 11.078125 -3.421875 L 11.078125 -7.859375 C 11.078125 -9.441406 10.71875 -10.535156 10 -11.140625 C 9.289062 -11.742188 8.28125 -12.046875 6.96875 -12.046875 L 4.75 -12.046875 L 4.75 0 L 1.609375 0 L 1.609375 -28.1875 Z M 7.09375 -14.890625 C 8.351562 -14.890625 9.332031 -15.148438 10.03125 -15.671875 C 10.726562 -16.203125 11.078125 -17.234375 11.078125 -18.765625 L 11.078125 -21.46875 C 11.078125 -22.75 10.828125 -23.710938 10.328125 -24.359375 C 9.828125 -25.003906 8.988281 -25.328125 7.8125 -25.328125 L 4.75 -25.328125 L 4.75 -14.890625 Z M 7.09375 -14.890625 "/></g></g><g style="fill:#eab31b;fill-opacity:1;"><g transform="translate(680.379848, 217.627337)"><path style="stroke:none" d="M 1.375 -21.375 C 1.375 -23.550781 1.898438 -25.273438 2.953125 -26.546875 C 4.015625 -27.828125 5.632812 -28.46875 7.8125 -28.46875 C 9.988281 -28.46875 11.613281 -27.828125 12.6875 -26.546875 C 13.757812 -25.273438 14.296875 -23.550781 14.296875 -21.375 L 14.296875 -6.8125 C 14.296875 -4.65625 13.757812 -2.929688 12.6875 -1.640625 C 11.613281 -0.359375 9.988281 0.28125 7.8125 0.28125 C 5.632812 0.28125 4.015625 -0.359375 2.953125 -1.640625 C 1.898438 -2.929688 1.375 -4.65625 1.375 -6.8125 Z M 4.46875 -6.640625 C 4.46875 -5.359375 4.742188 -4.359375 5.296875 -3.640625 C 5.847656 -2.929688 6.6875 -2.578125 7.8125 -2.578125 C 8.96875 -2.578125 9.8125 -2.929688 10.34375 -3.640625 C 10.882812 -4.359375 11.15625 -5.359375 11.15625 -6.640625 L 11.15625 -21.546875 C 11.15625 -22.828125 10.882812 -23.820312 10.34375 -24.53125 C 9.8125 -25.25 8.96875 -25.609375 7.8125 -25.609375 C 6.6875 -25.609375 5.847656 -25.25 5.296875 -24.53125 C 4.742188 -23.820312 4.46875 -22.828125 4.46875 -21.546875 Z M 4.46875 -6.640625 "/></g></g><g style="fill:#eab31b;fill-opacity:1;"><g transform="translate(278.009887, 164.560117)"><path style="stroke:none" d="M 27.078125 0.734375 L 25.6875 0.734375 L 24.359375 0.4375 L 22.8125 0.296875 L 21.265625 -0.21875 L 20.171875 -0.515625 L 18.6875 -1.03125 L 13.6875 -3.75 L 12.578125 -4.640625 L 11.328125 -5.453125 L 8.6875 -8.015625 L 5.734375 -12.296875 L 5.21875 -13.546875 L 4.484375 -14.859375 L 4.265625 -16.1875 L 3.6875 -17.59375 L 2.9375 -20.453125 L 2.9375 -23.40625 L 2.65625 -25.765625 L 3.96875 -34.953125 L 7.359375 -41.578125 L 8.25 -42.828125 L 10.234375 -44.671875 L 11.109375 -45.84375 L 16.265625 -49.15625 L 17.59375 -49.671875 L 18.6875 -50.34375 L 20.09375 -50.859375 L 22.96875 -51.4375 L 24.359375 -51.890625 L 25.609375 -52.03125 L 32.3125 -52.03125 L 35.984375 -51.515625 L 38.859375 -50.703125 L 43.046875 -48.796875 L 44.671875 -47.6875 L 48.5 -44.234375 L 51.21875 -40.484375 L 52.40625 -37.6875 L 52.625 -36.359375 L 53.203125 -34.890625 L 52.765625 -33.34375 L 51.59375 -32.671875 L 50.125 -32.53125 L 42.6875 -32.671875 L 41.0625 -33.34375 L 39.734375 -34.734375 L 39.078125 -35.984375 L 37.96875 -37.171875 L 35.84375 -38.9375 L 34.296875 -39.453125 L 31.5 -39.96875 L 26.9375 -40.109375 L 24.359375 -39.375 L 22.96875 -38.78125 L 20.53125 -37.015625 L 18.6875 -34.734375 L 17.4375 -32.09375 L 17 -30.765625 L 16.921875 -29.296875 L 16.40625 -27.96875 L 16.34375 -25.609375 L 16.5625 -22.15625 L 17.4375 -19.28125 L 18.03125 -18.03125 L 20.75 -14.5 L 21.703125 -13.46875 L 23.109375 -12.8125 L 27.078125 -11.328125 L 31.203125 -11.265625 L 32.75 -11.40625 L 34.21875 -11.84375 L 36.71875 -13.09375 L 39.515625 -16.109375 L 40.109375 -17.375 L 41.578125 -18.765625 L 43.203125 -19.5 L 51.078125 -19.421875 L 52.90625 -18.625 L 53.359375 -17.296875 L 53.140625 -15.890625 L 52.625 -14.421875 L 52.25 -13.03125 L 51.59375 -11.703125 L 49.375 -7.875 L 48.125 -6.921875 L 47.328125 -5.671875 L 46.359375 -4.703125 L 45.109375 -3.828125 L 43.78125 -3.015625 L 42.6875 -2.28125 L 38.640625 -0.515625 L 31.5 0.953125 Z M 27.078125 0.734375 "/></g></g><g style="fill:#eab31b;fill-opacity:1;"><g transform="translate(334.150832, 164.560117)"><path style="stroke:none" d="M 5.59375 -2.0625 L 5.453125 -9.5625 L 5.59375 -11.046875 L 5.375 -12.359375 L 5.59375 -13.828125 L 5.453125 -15.453125 L 5.671875 -18.90625 L 5.515625 -20.609375 L 5.671875 -22.890625 L 5.453125 -24.28125 L 5.453125 -28.546875 L 5.59375 -30.09375 L 5.296875 -34.59375 L 5.59375 -36.0625 L 5.453125 -37.3125 L 5.671875 -38.9375 L 5.296875 -43.34375 L 5.515625 -44.75 L 5.375 -46.359375 L 5.375 -47.765625 L 5.59375 -49.375 L 6.40625 -50.625 L 8.6875 -51.296875 L 10.078125 -51.4375 L 11.546875 -51.296875 L 15.890625 -51.4375 L 18.171875 -50.703125 L 19.0625 -49.15625 L 18.984375 -47.90625 L 19.203125 -40.625 L 19.0625 -39.296875 L 19.0625 -34.890625 L 19.65625 -33.484375 L 21.1875 -32.828125 L 28.328125 -32.890625 L 29.65625 -32.75 L 32.609375 -32.75 L 33.859375 -33.484375 L 34.65625 -34.953125 L 34.65625 -39.21875 L 34.953125 -40.484375 L 34.8125 -48.5 L 35.40625 -50.625 L 37.609375 -51.296875 L 39.078125 -51.296875 L 41.4375 -51.515625 L 45.1875 -51.4375 L 47.46875 -50.703125 L 48.203125 -49.234375 L 48.34375 -47.765625 L 48.0625 -46.296875 L 48.203125 -44.890625 L 48.5 -43.5 L 48.125 -37.390625 L 48.34375 -30.171875 L 48.203125 -28.546875 L 48.28125 -25.765625 L 48.0625 -24.21875 L 48.0625 -22.734375 L 48.203125 -21.1875 L 48.125 -19.71875 L 48.421875 -16.921875 L 48.421875 -5.078125 L 48.125 -2.0625 L 47.328125 -0.65625 L 45.84375 0.140625 L 40.765625 0.140625 L 38.5625 -0.078125 L 37.09375 0.078125 L 35.625 -0.65625 L 34.890625 -2.203125 L 34.65625 -5.078125 L 34.953125 -7.28125 L 34.65625 -12.515625 L 34.890625 -13.90625 L 34.65625 -18.40625 L 33.921875 -19.875 L 32.609375 -20.609375 L 31.203125 -20.609375 L 29.734375 -20.75 L 28.265625 -20.609375 L 23.921875 -20.609375 L 22.59375 -20.75 L 21.046875 -20.75 L 19.578125 -19.875 L 18.84375 -18.328125 L 19.0625 -12.515625 L 18.90625 -10.96875 L 18.984375 -9.34375 L 18.84375 -7.953125 L 18.984375 -6.46875 L 18.84375 -5.15625 L 19.0625 -3.53125 L 18.984375 -2.0625 L 18.40625 -0.59375 L 16.78125 0.078125 L 15.234375 0.21875 L 13.6875 0 L 11.546875 -0.078125 L 9.265625 0.140625 L 7.875 0.140625 L 6.1875 -0.515625 Z M 5.59375 -2.0625 "/></g></g><g style="fill:#eab31b;fill-opacity:1;"><g transform="translate(388.010817, 164.560117)"><path style="stroke:none" d="M 3.53125 -2.140625 L 3.53125 -7.796875 L 3.6875 -9.203125 L 4.5625 -10.59375 L 9.421875 -12.140625 L 10.15625 -13.765625 L 10.296875 -16.625 L 10.015625 -19.796875 L 10.375 -21.265625 L 10.078125 -24.140625 L 10.234375 -25.609375 L 10.296875 -28.625 L 10.078125 -30.328125 L 10.015625 -31.578125 L 10.234375 -37.828125 L 9.265625 -39.15625 L 4.78125 -40.703125 L 4.046875 -42.09375 L 4.046875 -43.5 L 3.90625 -44.96875 L 3.90625 -46.578125 L 4.046875 -47.84375 L 4.046875 -49.234375 L 4.859375 -50.78125 L 6.46875 -51.515625 L 9.34375 -51.375 L 10.75 -51.4375 L 15.234375 -51.375 L 16.859375 -51.515625 L 26.203125 -51.4375 L 28.546875 -50.78125 L 29.140625 -49.3125 L 29.296875 -47.84375 L 29.140625 -46.515625 L 29.140625 -42.171875 L 28.328125 -40.765625 L 26.9375 -39.96875 L 25.3125 -39.890625 L 23.921875 -39.078125 L 23.109375 -37.75 L 23.109375 -34.65625 L 23.25 -33.125 L 23.109375 -31.640625 L 23.25 -30.25 L 23.109375 -27.96875 L 23.25 -25.765625 L 22.96875 -22.671875 L 23.25 -19.71875 L 23.109375 -13.6875 L 23.921875 -12.21875 L 28.84375 -10.671875 L 29.875 -9.421875 L 29.65625 -4.9375 L 29.8125 -3.609375 L 29.8125 -1.984375 L 29 -0.65625 L 27.59375 0.078125 L 5.734375 -0.078125 L 4.265625 -0.59375 Z M 3.53125 -2.140625 "/></g></g><g style="fill:#eab31b;fill-opacity:1;"><g transform="translate(421.415786, 164.560117)"><path style="stroke:none" d="M 5.375 -2.203125 L 5.296875 -5 L 5.59375 -9.421875 L 5.375 -12.4375 L 5.515625 -18.46875 L 5.375 -19.875 L 5.375 -22.8125 L 5.515625 -24.21875 L 5.296875 -25.765625 L 5.296875 -31.640625 L 5.453125 -33.046875 L 5.375 -34.59375 L 5.515625 -35.984375 L 5.375 -37.53125 L 5.59375 -39.078125 L 5.296875 -44.015625 L 5.453125 -46.140625 L 5.296875 -49.3125 L 5.96875 -50.859375 L 7.4375 -51.515625 L 29.578125 -51.375 L 33.703125 -50.40625 L 36.421875 -48.9375 L 38.640625 -47.390625 L 39.671875 -46.359375 L 41.4375 -44.015625 L 41.875 -42.609375 L 42.609375 -41.21875 L 43.421875 -38.484375 L 43.5 -36.359375 L 42.46875 -31.0625 L 41.578125 -29.8125 L 40.765625 -28.328125 L 40.484375 -26.859375 L 41.140625 -25.25 L 42.25 -24.140625 L 43.265625 -22.890625 L 44.59375 -20.3125 L 45.109375 -18.765625 L 45.40625 -17.375 L 45.328125 -11.484375 L 44.75 -10.015625 L 44.453125 -8.75 L 43.78125 -7.359375 L 42.09375 -4.9375 L 40.921875 -3.828125 L 39.96875 -3.09375 L 37.171875 -1.46875 L 34.734375 -0.515625 L 31.9375 -0.140625 L 7.578125 0.140625 L 6.1875 -0.515625 Z M 20.453125 -31.578125 L 25.984375 -31.578125 L 28.484375 -32.09375 L 29.734375 -33.265625 L 30.09375 -35.46875 L 29.875 -37.453125 L 28.921875 -38.484375 L 28.046875 -39.078125 L 25.765625 -39.515625 L 20.453125 -39.734375 L 18.90625 -38.9375 L 18.109375 -37.6875 L 18.25 -36.28125 L 18.25 -34.890625 L 17.953125 -33.625 L 18.6875 -32.15625 Z M 20.234375 -11.703125 L 25.984375 -11.625 L 29.953125 -12 L 31.28125 -12.8125 L 32.234375 -13.828125 L 32.375 -15.75 L 32.234375 -17.8125 L 31.125 -18.84375 L 30.03125 -19.65625 L 27.96875 -20.015625 L 20.171875 -20.015625 L 18.6875 -19.28125 L 18.171875 -17.953125 L 18.109375 -16.484375 L 18.25 -15.09375 L 18.171875 -13.828125 L 18.984375 -12.296875 Z M 20.234375 -11.703125 "/></g></g><g style="fill:#eab31b;fill-opacity:1;"><g transform="translate(469.978072, 164.560117)"><path style="stroke:none" d="M 27.078125 0.734375 L 25.6875 0.734375 L 24.359375 0.4375 L 22.8125 0.296875 L 21.265625 -0.21875 L 20.171875 -0.515625 L 18.6875 -1.03125 L 13.6875 -3.75 L 12.578125 -4.640625 L 11.328125 -5.453125 L 8.6875 -8.015625 L 5.734375 -12.296875 L 5.21875 -13.546875 L 4.484375 -14.859375 L 4.265625 -16.1875 L 3.6875 -17.59375 L 2.9375 -20.453125 L 2.9375 -23.40625 L 2.65625 -25.765625 L 3.96875 -34.953125 L 7.359375 -41.578125 L 8.25 -42.828125 L 10.234375 -44.671875 L 11.109375 -45.84375 L 16.265625 -49.15625 L 17.59375 -49.671875 L 18.6875 -50.34375 L 20.09375 -50.859375 L 22.96875 -51.4375 L 24.359375 -51.890625 L 25.609375 -52.03125 L 32.3125 -52.03125 L 35.984375 -51.515625 L 38.859375 -50.703125 L 43.046875 -48.796875 L 44.671875 -47.6875 L 48.5 -44.234375 L 51.21875 -40.484375 L 52.40625 -37.6875 L 52.625 -36.359375 L 53.203125 -34.890625 L 52.765625 -33.34375 L 51.59375 -32.671875 L 50.125 -32.53125 L 42.6875 -32.671875 L 41.0625 -33.34375 L 39.734375 -34.734375 L 39.078125 -35.984375 L 37.96875 -37.171875 L 35.84375 -38.9375 L 34.296875 -39.453125 L 31.5 -39.96875 L 26.9375 -40.109375 L 24.359375 -39.375 L 22.96875 -38.78125 L 20.53125 -37.015625 L 18.6875 -34.734375 L 17.4375 -32.09375 L 17 -30.765625 L 16.921875 -29.296875 L 16.40625 -27.96875 L 16.34375 -25.609375 L 16.5625 -22.15625 L 17.4375 -19.28125 L 18.03125 -18.03125 L 20.75 -14.5 L 21.703125 -13.46875 L 23.109375 -12.8125 L 27.078125 -11.328125 L 31.203125 -11.265625 L 32.75 -11.40625 L 34.21875 -11.84375 L 36.71875 -13.09375 L 39.515625 -16.109375 L 40.109375 -17.375 L 41.578125 -18.765625 L 43.203125 -19.5 L 51.078125 -19.421875 L 52.90625 -18.625 L 53.359375 -17.296875 L 53.140625 -15.890625 L 52.625 -14.421875 L 52.25 -13.03125 L 51.59375 -11.703125 L 49.375 -7.875 L 48.125 -6.921875 L 47.328125 -5.671875 L 46.359375 -4.703125 L 45.109375 -3.828125 L 43.78125 -3.015625 L 42.6875 -2.28125 L 38.640625 -0.515625 L 31.5 0.953125 Z M 27.078125 0.734375 "/></g></g><g style="fill:#eab31b;fill-opacity:1;"><g transform="translate(526.119029, 164.560117)"><path style="stroke:none" d="M 5.59375 -2.0625 L 5.453125 -9.5625 L 5.59375 -11.046875 L 5.375 -12.359375 L 5.59375 -13.828125 L 5.453125 -15.453125 L 5.671875 -18.90625 L 5.515625 -20.609375 L 5.671875 -22.890625 L 5.453125 -24.28125 L 5.453125 -28.546875 L 5.59375 -30.09375 L 5.296875 -34.59375 L 5.59375 -36.0625 L 5.453125 -37.3125 L 5.671875 -38.9375 L 5.296875 -43.34375 L 5.515625 -44.75 L 5.375 -46.359375 L 5.375 -47.765625 L 5.59375 -49.375 L 6.40625 -50.625 L 8.6875 -51.296875 L 10.078125 -51.4375 L 11.546875 -51.296875 L 15.890625 -51.4375 L 18.171875 -50.703125 L 19.0625 -49.15625 L 18.984375 -47.90625 L 19.203125 -40.625 L 19.0625 -39.296875 L 19.0625 -34.890625 L 19.65625 -33.484375 L 21.1875 -32.828125 L 28.328125 -32.890625 L 29.65625 -32.75 L 32.609375 -32.75 L 33.859375 -33.484375 L 34.65625 -34.953125 L 34.65625 -39.21875 L 34.953125 -40.484375 L 34.8125 -48.5 L 35.40625 -50.625 L 37.609375 -51.296875 L 39.078125 -51.296875 L 41.4375 -51.515625 L 45.1875 -51.4375 L 47.46875 -50.703125 L 48.203125 -49.234375 L 48.34375 -47.765625 L 48.0625 -46.296875 L 48.203125 -44.890625 L 48.5 -43.5 L 48.125 -37.390625 L 48.34375 -30.171875 L 48.203125 -28.546875 L 48.28125 -25.765625 L 48.0625 -24.21875 L 48.0625 -22.734375 L 48.203125 -21.1875 L 48.125 -19.71875 L 48.421875 -16.921875 L 48.421875 -5.078125 L 48.125 -2.0625 L 47.328125 -0.65625 L 45.84375 0.140625 L 40.765625 0.140625 L 38.5625 -0.078125 L 37.09375 0.078125 L 35.625 -0.65625 L 34.890625 -2.203125 L 34.65625 -5.078125 L 34.953125 -7.28125 L 34.65625 -12.515625 L 34.890625 -13.90625 L 34.65625 -18.40625 L 33.921875 -19.875 L 32.609375 -20.609375 L 31.203125 -20.609375 L 29.734375 -20.75 L 28.265625 -20.609375 L 23.921875 -20.609375 L 22.59375 -20.75 L 21.046875 -20.75 L 19.578125 -19.875 L 18.84375 -18.328125 L 19.0625 -12.515625 L 18.90625 -10.96875 L 18.984375 -9.34375 L 18.84375 -7.953125 L 18.984375 -6.46875 L 18.84375 -5.15625 L 19.0625 -3.53125 L 18.984375 -2.0625 L 18.40625 -0.59375 L 16.78125 0.078125 L 15.234375 0.21875 L 13.6875 0 L 11.546875 -0.078125 L 9.265625 0.140625 L 7.875 0.140625 L 6.1875 -0.515625 Z M 5.59375 -2.0625 "/></g></g><g style="fill:#eab31b;fill-opacity:1;"><g transform="translate(579.979002, 164.560117)"><path style="stroke:none" d="M 0.953125 -1.984375 L 1.84375 -5.078125 L 2.5 -6.546875 L 3.390625 -7.734375 L 5.515625 -13.09375 L 7.578125 -16.921875 L 8.09375 -18.40625 L 8.75 -19.578125 L 9.203125 -21.125 L 10.234375 -23.03125 L 10.75 -24.4375 L 11.84375 -26.34375 L 13.03125 -29 L 13.828125 -30.328125 L 14.203125 -31.578125 L 18.328125 -40.84375 L 19.140625 -42.171875 L 22.296875 -48.796875 L 22.734375 -50.125 L 24.140625 -51.4375 L 26.5 -52.171875 L 29 -51.515625 L 30.328125 -50.125 L 30.765625 -48.71875 L 31.421875 -47.609375 L 32.609375 -44.8125 L 34.078125 -42.09375 L 35.171875 -39.515625 L 35.546875 -38.34375 L 36.875 -35.546875 L 37.3125 -34.140625 L 38.78125 -31.578125 L 39.15625 -30.171875 L 39.890625 -28.921875 L 40.484375 -27.671875 L 41.28125 -26.34375 L 41.734375 -24.875 L 42.390625 -23.765625 L 42.90625 -22.296875 L 43.5625 -21.046875 L 44.15625 -19.578125 L 44.96875 -18.40625 L 46 -15.671875 L 46.734375 -14.421875 L 47.25 -13.03125 L 48.5 -10.375 L 48.9375 -8.984375 L 49.671875 -7.875 L 50.125 -6.40625 L 51.078125 -5.15625 L 51.59375 -3.828125 L 52.03125 -1.984375 L 51.734375 -0.4375 L 50.40625 0 L 45.84375 0.140625 L 43.265625 -0.078125 L 41.953125 0.078125 L 40.03125 -0.65625 L 38.78125 -1.84375 L 37.96875 -3.171875 L 37.609375 -4.484375 L 36.0625 -5.671875 L 33.625 -6.46875 L 30.171875 -6.328125 L 28.625 -6.46875 L 27.296875 -6.46875 L 25.609375 -6.25 L 24.0625 -6.46875 L 19.9375 -6.40625 L 18.46875 -6.546875 L 16.703125 -5.8125 L 15.453125 -4.421875 L 14.203125 -1.90625 L 12.875 -0.59375 L 11.1875 0.140625 L 9.265625 -0.078125 L 2.796875 -0.078125 L 1.328125 -0.4375 Z M 23.703125 -18.171875 L 29.4375 -18.25 L 30.6875 -18.84375 L 30.828125 -20.171875 L 30.328125 -21.484375 L 29.578125 -22.96875 L 29.296875 -24.140625 L 28.484375 -25.390625 L 27.53125 -28.265625 L 26.640625 -28.84375 L 25.6875 -28.109375 L 25.015625 -26.9375 L 22.078125 -20.234375 L 22.296875 -18.765625 Z M 23.703125 -18.171875 "/></g></g><g style="fill:#69554c;fill-opacity:1;"><g transform="translate(630.238124, 164.560117)"><path style="stroke:none" d="M 17.953125 -1.46875 L 16.78125 -4.265625 L 16.046875 -7.140625 L 10.59375 -20.90625 L 10.375 -22.296875 L 9.640625 -23.84375 L 9.421875 -25.25 L 7.734375 -29.296875 L 7.4375 -30.609375 L 6.765625 -32.09375 L 6.40625 -33.40625 L 5.734375 -34.8125 L 4.34375 -39 L 3.609375 -40.25 L 3.234375 -41.796875 L 2.578125 -43.125 L 1.6875 -45.84375 L 1.03125 -47.25 L 0.65625 -49.15625 L 1.03125 -50.859375 L 2.578125 -51.375 L 5.375 -51.375 L 6.546875 -51.515625 L 11.1875 -51.4375 L 12.4375 -51.59375 L 14.28125 -50.703125 L 15.453125 -49.375 L 15.828125 -47.90625 L 16.265625 -46.578125 L 16.5625 -45.046875 L 17.65625 -42.171875 L 18.40625 -40.765625 L 22.59375 -24.5 L 23.03125 -24.578125 L 23.84375 -26.046875 L 24.0625 -27.296875 L 24.875 -28.84375 L 25.390625 -30.25 L 25.609375 -31.640625 L 27.234375 -35.765625 L 27.671875 -37.390625 L 29.734375 -42.765625 L 30.390625 -45.625 L 31.71875 -48.5 L 32.609375 -49.96875 L 34.21875 -50.78125 L 35.625 -50.703125 L 37.53125 -50.046875 L 38.640625 -48.578125 L 41.734375 -40.109375 L 41.953125 -38.640625 L 42.609375 -37.171875 L 42.90625 -35.765625 L 45.546875 -28.703125 L 45.78125 -27.296875 L 46.578125 -26.046875 L 46.8125 -24.734375 L 47.46875 -24.578125 L 50.703125 -37.3125 L 51.59375 -39.515625 L 51.953125 -40.84375 L 52.625 -42.3125 L 53.875 -46.65625 L 54.53125 -47.90625 L 54.90625 -49.375 L 56 -50.703125 L 57.703125 -51.515625 L 59.015625 -51.4375 L 67.046875 -51.59375 L 69.328125 -51 L 69.625 -49.234375 L 67.703125 -43.046875 L 66.890625 -41.796875 L 65.578125 -37.609375 L 64.84375 -36.28125 L 64.546875 -34.890625 L 63.875 -33.40625 L 63.140625 -30.6875 L 62.328125 -29.296875 L 60.640625 -23.84375 L 59.015625 -20.453125 L 58.4375 -18.328125 L 57.84375 -16.78125 L 57.546875 -15.375 L 56.8125 -14.0625 L 55.859375 -11.109375 L 54.6875 -8.53125 L 53.875 -5.671875 L 52.546875 -2.9375 L 52.25 -1.546875 L 51 -0.21875 L 49.15625 0.4375 L 46.65625 0.59375 L 44.96875 -0.078125 L 43.640625 -1.6875 L 42.53125 -4.34375 L 42.25 -5.734375 L 41.734375 -7.0625 L 40.921875 -8.53125 L 39.8125 -11.265625 L 39.375 -12.65625 L 38.1875 -15.3125 L 37.828125 -16.78125 L 37.171875 -18.171875 L 36.421875 -19.578125 L 36.0625 -20.828125 L 35.328125 -22.296875 L 34.734375 -22.21875 L 34.296875 -20.90625 L 32.96875 -18.03125 L 32.671875 -16.78125 L 29.734375 -9.78125 L 29.359375 -8.3125 L 28.78125 -7.140625 L 27.75 -4.1875 L 26.421875 -1.625 L 25.25 -0.140625 L 23.546875 0.4375 L 20.6875 0.4375 L 19.0625 -0.078125 Z M 17.953125 -1.46875 "/></g></g><g style="fill:#69554c;fill-opacity:1;"><g transform="translate(700.432697, 164.560117)"><path style="stroke:none" d="M 5.296875 -2.140625 L 5.59375 -3.609375 L 5.671875 -5.078125 L 5.515625 -7.953125 L 5.515625 -9.421875 L 5.375 -11.109375 L 5.59375 -12.4375 L 5.515625 -13.828125 L 5.671875 -15.453125 L 5.453125 -17 L 5.59375 -19.9375 L 5.375 -22.8125 L 5.59375 -24.359375 L 5.59375 -37.53125 L 5.453125 -38.859375 L 5.59375 -40.40625 L 5.296875 -44.15625 L 5.59375 -46.296875 L 5.453125 -49.234375 L 6.1875 -50.859375 L 8.3125 -51.375 L 17.953125 -51.59375 L 19.28125 -51.4375 L 22.15625 -51.515625 L 23.625 -51.375 L 26.859375 -51.515625 L 28.328125 -51.296875 L 29.65625 -51.4375 L 35.546875 -51.375 L 37.09375 -50.703125 L 37.828125 -49.234375 L 37.609375 -47.84375 L 37.53125 -46.21875 L 37.75 -44.8125 L 37.90625 -41.796875 L 37.09375 -40.484375 L 35.546875 -39.671875 L 21.421875 -39.59375 L 19.140625 -38.9375 L 18.40625 -36.796875 L 18.546875 -34.515625 L 19.421875 -33.1875 L 20.6875 -32.375 L 26.5 -32.453125 L 28.1875 -32.3125 L 29.734375 -32.3125 L 31.203125 -32.453125 L 34.140625 -32.375 L 35.40625 -31.578125 L 36.0625 -30.171875 L 36.203125 -28.703125 L 36.0625 -22.890625 L 35.328125 -21.484375 L 33.859375 -20.6875 L 32.53125 -20.609375 L 30.984375 -20.75 L 29 -20.609375 L 25.09375 -20.828125 L 23.625 -20.6875 L 20.75 -20.6875 L 19.421875 -19.875 L 18.765625 -18.328125 L 18.6875 -14.71875 L 19.359375 -12.4375 L 20.90625 -11.546875 L 22.515625 -11.703125 L 24.140625 -11.546875 L 25.53125 -11.78125 L 35.25 -11.625 L 37.453125 -10.890625 L 38.421875 -9.421875 L 38.265625 -8.015625 L 38.34375 -3.453125 L 38.1875 -2.0625 L 37.53125 -0.65625 L 35.984375 0.078125 L 34.59375 0.21875 L 30.09375 -0.078125 L 25.609375 0.140625 L 24.28125 -0.078125 L 7.65625 0.078125 L 6.25 -0.734375 Z M 5.296875 -2.140625 "/></g></g><g style="fill:#69554c;fill-opacity:1;"><g transform="translate(742.593595, 164.560117)"><path style="stroke:none" d="M 5.375 -2.203125 L 5.296875 -5 L 5.59375 -9.421875 L 5.375 -12.4375 L 5.515625 -18.46875 L 5.375 -19.875 L 5.375 -22.8125 L 5.515625 -24.21875 L 5.296875 -25.765625 L 5.296875 -31.640625 L 5.453125 -33.046875 L 5.375 -34.59375 L 5.515625 -35.984375 L 5.375 -37.53125 L 5.59375 -39.078125 L 5.296875 -44.015625 L 5.453125 -46.140625 L 5.296875 -49.3125 L 5.96875 -50.859375 L 7.4375 -51.515625 L 29.578125 -51.375 L 33.703125 -50.40625 L 36.421875 -48.9375 L 38.640625 -47.390625 L 39.671875 -46.359375 L 41.4375 -44.015625 L 41.875 -42.609375 L 42.609375 -41.21875 L 43.421875 -38.484375 L 43.5 -36.359375 L 42.46875 -31.0625 L 41.578125 -29.8125 L 40.765625 -28.328125 L 40.484375 -26.859375 L 41.140625 -25.25 L 42.25 -24.140625 L 43.265625 -22.890625 L 44.59375 -20.3125 L 45.109375 -18.765625 L 45.40625 -17.375 L 45.328125 -11.484375 L 44.75 -10.015625 L 44.453125 -8.75 L 43.78125 -7.359375 L 42.09375 -4.9375 L 40.921875 -3.828125 L 39.96875 -3.09375 L 37.171875 -1.46875 L 34.734375 -0.515625 L 31.9375 -0.140625 L 7.578125 0.140625 L 6.1875 -0.515625 Z M 20.453125 -31.578125 L 25.984375 -31.578125 L 28.484375 -32.09375 L 29.734375 -33.265625 L 30.09375 -35.46875 L 29.875 -37.453125 L 28.921875 -38.484375 L 28.046875 -39.078125 L 25.765625 -39.515625 L 20.453125 -39.734375 L 18.90625 -38.9375 L 18.109375 -37.6875 L 18.25 -36.28125 L 18.25 -34.890625 L 17.953125 -33.625 L 18.6875 -32.15625 Z M 20.234375 -11.703125 L 25.984375 -11.625 L 29.953125 -12 L 31.28125 -12.8125 L 32.234375 -13.828125 L 32.375 -15.75 L 32.234375 -17.8125 L 31.125 -18.84375 L 30.03125 -19.65625 L 27.96875 -20.015625 L 20.171875 -20.015625 L 18.6875 -19.28125 L 18.171875 -17.953125 L 18.109375 -16.484375 L 18.25 -15.09375 L 18.171875 -13.828125 L 18.984375 -12.296875 Z M 20.234375 -11.703125 "/></g></g></g></svg>