<svg xmlns="http://www.w3.org/2000/svg" xmlns:xlink="http://www.w3.org/1999/xlink" width="1080" zoomAndPan="magnify" viewBox="0 0 810 149.999998" height="200" preserveAspectRatio="xMidYMid meet" version="1.2"><defs><clipPath id="d1f30017af"><path d="M 42 82 L 91 82 L 91 130.597656 L 42 130.597656 Z M 42 82 "/></clipPath><clipPath id="0cf073189b"><path d="M 53 22.738281 L 101 22.738281 L 101 71 L 53 71 Z M 53 22.738281 "/></clipPath><clipPath id="c74ffc6709"><path d="M 44 82 L 92 82 L 92 131 L 44 131 Z M 44 82 "/></clipPath><clipPath id="329c2a8fec"><path d="M 15 25.933594 L 122.679688 19.714844 L 128.898438 127.394531 L 21.21875 133.613281 Z M 15 25.933594 "/></clipPath><clipPath id="180f3c4478"><path d="M 15 25.933594 L 122.679688 19.714844 L 128.898438 127.394531 L 21.21875 133.613281 Z M 15 25.933594 "/></clipPath><clipPath id="1e5b2bfe81"><path d="M 80 66 L 121 66 L 121 117 L 80 117 Z M 80 66 "/></clipPath><clipPath id="fd71c7bca9"><path d="M 15 25.933594 L 122.679688 19.714844 L 128.898438 127.394531 L 21.21875 133.613281 Z M 15 25.933594 "/></clipPath><clipPath id="c562e517ec"><path d="M 15 25.933594 L 122.679688 19.714844 L 128.898438 127.394531 L 21.21875 133.613281 Z M 15 25.933594 "/></clipPath><clipPath id="dfde9d2d2e"><path d="M 71 45 L 118 45 L 118 84 L 71 84 Z M 71 45 "/></clipPath><clipPath id="0a6136c092"><path d="M 15 25.933594 L 122.679688 19.714844 L 128.898438 127.394531 L 21.21875 133.613281 Z M 15 25.933594 "/></clipPath><clipPath id="0bbbe1eea6"><path d="M 15 25.933594 L 122.679688 19.714844 L 128.898438 127.394531 L 21.21875 133.613281 Z M 15 25.933594 "/></clipPath><clipPath id="15df61c514"><path d="M 52 22 L 99 22 L 99 72 L 52 72 Z M 52 22 "/></clipPath><clipPath id="e3dd9c04ae"><path d="M 15 25.933594 L 122.679688 19.714844 L 128.898438 127.394531 L 21.21875 133.613281 Z M 15 25.933594 "/></clipPath><clipPath id="69e8363e35"><path d="M 15 25.933594 L 122.679688 19.714844 L 128.898438 127.394531 L 21.21875 133.613281 Z M 15 25.933594 "/></clipPath><clipPath id="24e1af1215"><path d="M 23 36 L 65 36 L 65 87 L 23 87 Z M 23 36 "/></clipPath><clipPath id="4d633b1153"><path d="M 15 25.933594 L 122.679688 19.714844 L 128.898438 127.394531 L 21.21875 133.613281 Z M 15 25.933594 "/></clipPath><clipPath id="23f23fd1c2"><path d="M 15 25.933594 L 122.679688 19.714844 L 128.898438 127.394531 L 21.21875 133.613281 Z M 15 25.933594 "/></clipPath><clipPath id="a62b43d052"><path d="M 27 71 L 74 71 L 74 109 L 27 109 Z M 27 71 "/></clipPath><clipPath id="e989f1738d"><path d="M 15 25.933594 L 122.679688 19.714844 L 128.898438 127.394531 L 21.21875 133.613281 Z M 15 25.933594 "/></clipPath><clipPath id="9f08c112e8"><path d="M 15 25.933594 L 122.679688 19.714844 L 128.898438 127.394531 L 21.21875 133.613281 Z M 15 25.933594 "/></clipPath></defs><g id="f6cb3faca6"><g clip-rule="nonzero" clip-path="url(#d1f30017af)"><path style=" stroke:none;fill-rule:evenodd;fill:#69554c;fill-opacity:1;" d="M 42.6875 107.492188 C 42.6875 107.492188 61.734375 115.28125 76.160156 102.144531 C 84.511719 94.570312 81.53125 86.109375 76.375 83.609375 C 76.375 83.609375 88.382812 78.828125 90.691406 94.300781 C 92.785156 108.351562 68.289062 117.160156 72.398438 130.429688 C 72.398438 130.429688 60.902344 128.175781 62.164062 118.210938 C 62.136719 118.234375 48.867188 119.285156 42.6875 107.492188 Z M 42.6875 107.492188 "/></g><path style=" stroke:none;fill-rule:evenodd;fill:#69554c;fill-opacity:1;" d="M 84.675781 117.511719 C 84.675781 117.511719 100.792969 104.75 96.441406 85.730469 C 93.941406 74.773438 85.105469 73.214844 80.402344 76.492188 C 80.402344 76.492188 82.121094 63.679688 96.734375 69.265625 C 110.03125 74.34375 105.679688 99.996094 119.273438 102.925781 C 119.273438 102.925781 111.644531 111.84375 103.613281 105.851562 C 103.613281 105.851562 98.023438 117.941406 84.675781 117.511719 Z M 84.675781 117.511719 "/><path style=" stroke:none;fill-rule:evenodd;fill:#69554c;fill-opacity:1;" d="M 114.035156 85.839844 C 114.035156 85.839844 110.8125 65.53125 92.113281 60.023438 C 81.316406 56.828125 75.621094 63.757812 76.183594 69.453125 C 76.183594 69.453125 65.871094 61.636719 77.90625 51.644531 C 88.8125 42.5625 109.066406 58.921875 118.277344 48.527344 C 118.277344 48.527344 122.28125 59.542969 113.148438 63.625 C 113.148438 63.652344 120.9375 74.421875 114.035156 85.839844 Z M 114.035156 85.839844 "/><g clip-rule="nonzero" clip-path="url(#0cf073189b)"><path style=" stroke:none;fill-rule:evenodd;fill:#69554c;fill-opacity:1;" d="M 100.84375 44.738281 C 100.84375 44.738281 81.558594 37.59375 67.589844 51.160156 C 59.503906 59.003906 62.726562 67.386719 67.964844 69.695312 C 67.964844 69.695312 56.121094 74.851562 53.324219 59.460938 C 50.746094 45.464844 74.949219 35.875 70.410156 22.738281 C 70.410156 22.738281 81.988281 24.648438 81.046875 34.613281 C 81.019531 34.613281 94.265625 33.136719 100.84375 44.738281 Z M 100.84375 44.738281 "/></g><path style=" stroke:none;fill-rule:evenodd;fill:#69554c;fill-opacity:1;" d="M 58.535156 36.0625 C 58.535156 36.0625 42.847656 49.359375 47.820312 68.21875 C 50.691406 79.097656 59.585938 80.386719 64.152344 76.949219 C 64.152344 76.949219 62.835938 89.816406 48.035156 84.710938 C 34.601562 80.089844 38.09375 54.277344 24.449219 51.804688 C 24.449219 51.804688 31.753906 42.671875 40 48.367188 C 39.976562 48.367188 45.1875 36.117188 58.535156 36.0625 Z M 58.535156 36.0625 "/><path style=" stroke:none;fill-rule:evenodd;fill:#69554c;fill-opacity:1;" d="M 30.222656 68.703125 C 30.222656 68.703125 34.117188 88.902344 52.976562 93.816406 C 63.882812 96.636719 69.335938 89.519531 68.609375 83.851562 C 68.609375 83.851562 79.167969 91.292969 67.480469 101.714844 C 56.84375 111.117188 36.078125 95.402344 27.1875 106.121094 C 27.1875 106.121094 22.808594 95.242188 31.808594 90.890625 C 31.835938 90.863281 23.722656 80.332031 30.222656 68.703125 Z M 30.222656 68.703125 "/><g clip-rule="nonzero" clip-path="url(#c74ffc6709)"><g clip-rule="nonzero" clip-path="url(#329c2a8fec)"><g clip-rule="nonzero" clip-path="url(#180f3c4478)"><path style=" stroke:none;fill-rule:evenodd;fill:#eab31b;fill-opacity:1;" d="M 44.519531 109.121094 C 44.519531 109.121094 63.980469 115.800781 77.625 101.855469 C 85.527344 93.8125 82.0625 85.535156 76.769531 83.339844 C 76.769531 83.339844 88.484375 77.871094 91.679688 93.1875 C 94.582031 107.089844 70.632812 117.300781 75.5 130.3125 C 75.5 130.3125 63.894531 128.722656 64.578125 118.699219 C 64.554688 118.726562 51.367188 120.539062 44.519531 109.121094 Z M 44.519531 109.121094 "/></g></g></g><g clip-rule="nonzero" clip-path="url(#1e5b2bfe81)"><g clip-rule="nonzero" clip-path="url(#fd71c7bca9)"><g clip-rule="nonzero" clip-path="url(#c562e517ec)"><path style=" stroke:none;fill-rule:evenodd;fill:#eab31b;fill-opacity:1;" d="M 87.011719 116.703125 C 87.011719 116.703125 102.367188 103.035156 96.925781 84.300781 C 93.800781 73.503906 84.886719 72.457031 80.382812 76 C 80.382812 76 81.359375 63.109375 96.273438 67.84375 C 109.839844 72.144531 106.972656 98.007812 120.710938 100.148438 C 120.710938 100.148438 113.609375 109.492188 105.246094 103.972656 C 105.246094 103.972656 100.367188 116.363281 87.011719 116.703125 Z M 87.011719 116.703125 "/></g></g></g><g clip-rule="nonzero" clip-path="url(#dfde9d2d2e)"><g clip-rule="nonzero" clip-path="url(#0a6136c092)"><g clip-rule="nonzero" clip-path="url(#0bbbe1eea6)"><path style=" stroke:none;fill-rule:evenodd;fill:#eab31b;fill-opacity:1;" d="M 114.5 83.394531 C 114.5 83.394531 110.109375 63.304688 91.125 58.882812 C 80.160156 56.316406 74.875 63.5625 75.765625 69.214844 C 75.765625 69.214844 65.019531 62.007812 76.457031 51.335938 C 86.820312 41.644531 107.984375 56.808594 116.585938 45.898438 C 116.585938 45.898438 121.214844 56.664062 112.332031 61.265625 C 112.335938 61.292969 120.730469 71.597656 114.5 83.394531 Z M 114.5 83.394531 "/></g></g></g><g clip-rule="nonzero" clip-path="url(#15df61c514)"><g clip-rule="nonzero" clip-path="url(#e3dd9c04ae)"><g clip-rule="nonzero" clip-path="url(#69e8363e35)"><path style=" stroke:none;fill-rule:evenodd;fill:#eab31b;fill-opacity:1;" d="M 98.960938 43.121094 C 98.960938 43.121094 79.292969 37.101562 66.128906 51.449219 C 58.511719 59.746094 62.210938 67.925781 67.574219 69.929688 C 67.574219 69.929688 56.046875 75.761719 52.367188 60.558594 C 48.988281 46.734375 72.597656 35.765625 67.308594 22.914062 C 67.308594 22.914062 78.976562 24.148438 78.613281 34.152344 C 78.585938 34.15625 91.722656 31.917969 98.960938 43.121094 Z M 98.960938 43.121094 "/></g></g></g><g clip-rule="nonzero" clip-path="url(#24e1af1215)"><g clip-rule="nonzero" clip-path="url(#4d633b1153)"><g clip-rule="nonzero" clip-path="url(#23f23fd1c2)"><path style=" stroke:none;fill-rule:evenodd;fill:#eab31b;fill-opacity:1;" d="M 56.222656 36.898438 C 56.222656 36.898438 41.328125 51.078125 47.375 69.617188 C 50.871094 80.3125 59.824219 81.089844 64.183594 77.390625 C 64.183594 77.390625 63.613281 90.3125 48.542969 86.070312 C 34.867188 82.234375 36.863281 56.261719 23.097656 54.578125 C 23.097656 54.578125 29.867188 45.039062 38.429688 50.25 C 38.402344 50.25 42.898438 37.722656 56.222656 36.898438 Z M 56.222656 36.898438 "/></g></g></g><g clip-rule="nonzero" clip-path="url(#a62b43d052)"><g clip-rule="nonzero" clip-path="url(#e989f1738d)"><g clip-rule="nonzero" clip-path="url(#9f08c112e8)"><path style=" stroke:none;fill-rule:evenodd;fill:#eab31b;fill-opacity:1;" d="M 29.839844 71.113281 C 29.839844 71.113281 34.890625 91.058594 54 94.878906 C 65.050781 97.066406 70.085938 89.644531 69.035156 84.027344 C 69.035156 84.027344 80.003906 90.847656 68.9375 101.925781 C 58.859375 111.925781 37.222656 97.433594 28.964844 108.648438 C 28.964844 108.648438 23.96875 98.039062 32.699219 93.175781 C 32.726562 93.148438 24.019531 83.101562 29.839844 71.113281 Z M 29.839844 71.113281 "/></g></g></g><g style="fill:#eab31b;fill-opacity:1;"><g transform="translate(133.816933, 110.335953)"><path style="stroke:none" d="M 35.90625 0.96875 L 34.0625 0.96875 L 32.296875 0.578125 L 30.25 0.390625 L 28.203125 -0.296875 L 26.734375 -0.6875 L 24.78125 -1.359375 L 18.15625 -4.96875 L 16.6875 -6.140625 L 15.03125 -7.21875 L 11.515625 -10.640625 L 7.609375 -16.296875 L 6.921875 -17.953125 L 5.953125 -19.703125 L 5.65625 -21.46875 L 4.875 -23.328125 L 3.90625 -27.125 L 3.90625 -31.03125 L 3.515625 -34.15625 L 5.265625 -46.34375 L 9.75 -55.125 L 10.921875 -56.796875 L 13.5625 -59.234375 L 14.734375 -60.796875 L 21.5625 -65.1875 L 23.328125 -65.859375 L 24.78125 -66.75 L 26.640625 -67.421875 L 30.4375 -68.203125 L 32.296875 -68.796875 L 33.953125 -68.984375 L 42.84375 -68.984375 L 47.71875 -68.296875 L 51.515625 -67.234375 L 57.078125 -64.6875 L 59.234375 -63.234375 L 64.296875 -58.640625 L 67.921875 -53.671875 L 69.46875 -49.953125 L 69.765625 -48.203125 L 70.546875 -46.25 L 69.96875 -44.203125 L 68.40625 -43.328125 L 66.453125 -43.125 L 56.59375 -43.328125 L 54.453125 -44.203125 L 52.6875 -46.0625 L 51.8125 -47.71875 L 50.34375 -49.28125 L 47.515625 -51.625 L 45.46875 -52.296875 L 41.765625 -52.984375 L 35.71875 -53.1875 L 32.296875 -52.203125 L 30.4375 -51.421875 L 27.21875 -49.078125 L 24.78125 -46.0625 L 23.125 -42.546875 L 22.546875 -40.78125 L 22.4375 -38.84375 L 21.765625 -37.078125 L 21.65625 -33.953125 L 21.953125 -29.375 L 23.125 -25.5625 L 23.90625 -23.90625 L 27.515625 -19.21875 L 28.78125 -17.859375 L 30.640625 -16.984375 L 35.90625 -15.03125 L 41.375 -14.921875 L 43.421875 -15.125 L 45.375 -15.703125 L 48.6875 -17.375 L 52.40625 -21.375 L 53.1875 -23.03125 L 55.125 -24.875 L 57.28125 -25.859375 L 67.71875 -25.765625 L 70.15625 -24.6875 L 70.75 -22.9375 L 70.453125 -21.078125 L 69.765625 -19.125 L 69.28125 -17.265625 L 68.40625 -15.515625 L 65.46875 -10.4375 L 63.8125 -9.171875 L 62.75 -7.515625 L 61.46875 -6.25 L 59.8125 -5.078125 L 58.0625 -4 L 56.59375 -3.03125 L 51.234375 -0.6875 L 41.765625 1.265625 Z M 35.90625 0.96875 "/></g></g><g style="fill:#eab31b;fill-opacity:1;"><g transform="translate(204.65271, 110.335953)"><path style="stroke:none" d="M 7.421875 -2.734375 L 7.21875 -12.6875 L 7.421875 -14.640625 L 7.125 -16.390625 L 7.421875 -18.34375 L 7.21875 -20.484375 L 7.515625 -25.078125 L 7.3125 -27.328125 L 7.515625 -30.34375 L 7.21875 -32.203125 L 7.21875 -37.859375 L 7.421875 -39.90625 L 7.03125 -45.859375 L 7.421875 -47.8125 L 7.21875 -49.46875 L 7.515625 -51.625 L 7.03125 -57.46875 L 7.3125 -59.328125 L 7.125 -61.46875 L 7.125 -63.328125 L 7.421875 -65.46875 L 8.484375 -67.140625 L 11.515625 -68.015625 L 13.375 -68.203125 L 15.3125 -68.015625 L 21.078125 -68.203125 L 24.109375 -67.234375 L 25.265625 -65.1875 L 25.171875 -63.515625 L 25.46875 -53.859375 L 25.265625 -52.109375 L 25.265625 -46.25 L 26.046875 -44.390625 L 28.109375 -43.515625 L 37.5625 -43.625 L 39.328125 -43.421875 L 43.234375 -43.421875 L 44.890625 -44.390625 L 45.953125 -46.34375 L 45.953125 -52.015625 L 46.34375 -53.671875 L 46.15625 -64.296875 L 46.9375 -67.140625 L 49.859375 -68.015625 L 51.8125 -68.015625 L 54.9375 -68.296875 L 59.90625 -68.203125 L 62.9375 -67.234375 L 63.90625 -65.28125 L 64.109375 -63.328125 L 63.71875 -61.375 L 63.90625 -59.515625 L 64.296875 -57.671875 L 63.8125 -49.5625 L 64.109375 -40 L 63.90625 -37.859375 L 64.015625 -34.15625 L 63.71875 -32.109375 L 63.71875 -30.15625 L 63.90625 -28.109375 L 63.8125 -26.15625 L 64.203125 -22.4375 L 64.203125 -6.734375 L 63.8125 -2.734375 L 62.75 -0.875 L 60.796875 0.1875 L 54.0625 0.1875 L 51.125 -0.09375 L 49.171875 0.09375 L 47.234375 -0.875 L 46.25 -2.921875 L 45.953125 -6.734375 L 46.34375 -9.65625 L 45.953125 -16.59375 L 46.25 -18.4375 L 45.953125 -24.390625 L 44.984375 -26.34375 L 43.234375 -27.328125 L 41.375 -27.328125 L 39.421875 -27.515625 L 37.46875 -27.328125 L 31.71875 -27.328125 L 29.953125 -27.515625 L 27.90625 -27.515625 L 25.953125 -26.34375 L 24.984375 -24.296875 L 25.265625 -16.59375 L 25.078125 -14.546875 L 25.171875 -12.390625 L 24.984375 -10.53125 L 25.171875 -8.59375 L 24.984375 -6.828125 L 25.265625 -4.6875 L 25.171875 -2.734375 L 24.390625 -0.78125 L 22.25 0.09375 L 20.203125 0.296875 L 18.15625 0 L 15.3125 -0.09375 L 12.296875 0.1875 L 10.4375 0.1875 L 8.203125 -0.6875 Z M 7.421875 -2.734375 "/></g></g><g style="fill:#eab31b;fill-opacity:1;"><g transform="translate(272.463803, 110.335953)"><path style="stroke:none" d="M 4.6875 -2.828125 L 4.6875 -10.34375 L 4.875 -12.203125 L 6.046875 -14.046875 L 12.484375 -16.09375 L 13.46875 -18.25 L 13.65625 -22.046875 L 13.265625 -26.25 L 13.765625 -28.203125 L 13.375 -32 L 13.5625 -33.953125 L 13.65625 -37.953125 L 13.375 -40.203125 L 13.265625 -41.859375 L 13.5625 -50.15625 L 12.296875 -51.90625 L 6.34375 -53.953125 L 5.359375 -55.8125 L 5.359375 -57.671875 L 5.171875 -59.625 L 5.171875 -61.765625 L 5.359375 -63.421875 L 5.359375 -65.28125 L 6.4375 -67.328125 L 8.59375 -68.296875 L 12.390625 -68.109375 L 14.25 -68.203125 L 20.203125 -68.109375 L 22.34375 -68.296875 L 34.734375 -68.203125 L 37.859375 -67.328125 L 38.640625 -65.375 L 38.84375 -63.421875 L 38.640625 -61.671875 L 38.640625 -55.90625 L 37.5625 -54.0625 L 35.71875 -52.984375 L 33.5625 -52.890625 L 31.71875 -51.8125 L 30.640625 -50.0625 L 30.640625 -45.953125 L 30.828125 -43.90625 L 30.640625 -41.953125 L 30.828125 -40.109375 L 30.640625 -37.078125 L 30.828125 -34.15625 L 30.4375 -30.046875 L 30.828125 -26.15625 L 30.640625 -18.15625 L 31.71875 -16.203125 L 38.25 -14.15625 L 39.609375 -12.484375 L 39.328125 -6.53125 L 39.515625 -4.78125 L 39.515625 -2.640625 L 38.453125 -0.875 L 36.59375 0.09375 L 7.609375 -0.09375 L 5.65625 -0.78125 Z M 4.6875 -2.828125 "/></g></g><g style="fill:#eab31b;fill-opacity:1;"><g transform="translate(313.150339, 110.335953)"><path style="stroke:none" d="M 7.125 -2.921875 L 7.03125 -6.640625 L 7.421875 -12.484375 L 7.125 -16.484375 L 7.3125 -24.484375 L 7.125 -26.34375 L 7.125 -30.25 L 7.3125 -32.109375 L 7.03125 -34.15625 L 7.03125 -41.953125 L 7.21875 -43.8125 L 7.125 -45.859375 L 7.3125 -47.71875 L 7.125 -49.765625 L 7.421875 -51.8125 L 7.03125 -58.359375 L 7.21875 -61.1875 L 7.03125 -65.375 L 7.90625 -67.421875 L 9.859375 -68.296875 L 39.21875 -68.109375 L 44.6875 -66.84375 L 48.296875 -64.890625 L 51.234375 -62.84375 L 52.59375 -61.46875 L 54.9375 -58.359375 L 55.515625 -56.5 L 56.5 -54.640625 L 57.578125 -51.03125 L 57.671875 -48.203125 L 56.296875 -41.171875 L 55.125 -39.515625 L 54.0625 -37.5625 L 53.671875 -35.609375 L 54.546875 -33.46875 L 56.015625 -32 L 57.375 -30.34375 L 59.125 -26.9375 L 59.8125 -24.875 L 60.203125 -23.03125 L 60.109375 -15.21875 L 59.328125 -13.265625 L 58.9375 -11.609375 L 58.0625 -9.75 L 55.8125 -6.53125 L 54.25 -5.078125 L 52.984375 -4.09375 L 49.28125 -1.953125 L 46.0625 -0.6875 L 42.34375 -0.1875 L 10.046875 0.1875 L 8.203125 -0.6875 Z M 27.125 -41.859375 L 34.4375 -41.859375 L 37.765625 -42.546875 L 39.421875 -44.109375 L 39.90625 -47.03125 L 39.609375 -49.671875 L 38.34375 -51.03125 L 37.171875 -51.8125 L 34.15625 -52.40625 L 27.125 -52.6875 L 25.078125 -51.625 L 24 -49.953125 L 24.203125 -48.109375 L 24.203125 -46.25 L 23.8125 -44.59375 L 24.78125 -42.640625 Z M 26.828125 -15.515625 L 34.4375 -15.421875 L 39.71875 -15.90625 L 41.46875 -16.984375 L 42.734375 -18.34375 L 42.9375 -20.875 L 42.734375 -23.609375 L 41.28125 -24.984375 L 39.8125 -26.046875 L 37.078125 -26.546875 L 26.734375 -26.546875 L 24.78125 -25.5625 L 24.109375 -23.8125 L 24 -21.859375 L 24.203125 -20 L 24.109375 -18.34375 L 25.171875 -16.296875 Z M 26.828125 -15.515625 "/></g></g><g style="fill:#eab31b;fill-opacity:1;"><g transform="translate(373.936373, 110.335953)"><path style="stroke:none" d="M 35.90625 0.96875 L 34.0625 0.96875 L 32.296875 0.578125 L 30.25 0.390625 L 28.203125 -0.296875 L 26.734375 -0.6875 L 24.78125 -1.359375 L 18.15625 -4.96875 L 16.6875 -6.140625 L 15.03125 -7.21875 L 11.515625 -10.640625 L 7.609375 -16.296875 L 6.921875 -17.953125 L 5.953125 -19.703125 L 5.65625 -21.46875 L 4.875 -23.328125 L 3.90625 -27.125 L 3.90625 -31.03125 L 3.515625 -34.15625 L 5.265625 -46.34375 L 9.75 -55.125 L 10.921875 -56.796875 L 13.5625 -59.234375 L 14.734375 -60.796875 L 21.5625 -65.1875 L 23.328125 -65.859375 L 24.78125 -66.75 L 26.640625 -67.421875 L 30.4375 -68.203125 L 32.296875 -68.796875 L 33.953125 -68.984375 L 42.84375 -68.984375 L 47.71875 -68.296875 L 51.515625 -67.234375 L 57.078125 -64.6875 L 59.234375 -63.234375 L 64.296875 -58.640625 L 67.921875 -53.671875 L 69.46875 -49.953125 L 69.765625 -48.203125 L 70.546875 -46.25 L 69.96875 -44.203125 L 68.40625 -43.328125 L 66.453125 -43.125 L 56.59375 -43.328125 L 54.453125 -44.203125 L 52.6875 -46.0625 L 51.8125 -47.71875 L 50.34375 -49.28125 L 47.515625 -51.625 L 45.46875 -52.296875 L 41.765625 -52.984375 L 35.71875 -53.1875 L 32.296875 -52.203125 L 30.4375 -51.421875 L 27.21875 -49.078125 L 24.78125 -46.0625 L 23.125 -42.546875 L 22.546875 -40.78125 L 22.4375 -38.84375 L 21.765625 -37.078125 L 21.65625 -33.953125 L 21.953125 -29.375 L 23.125 -25.5625 L 23.90625 -23.90625 L 27.515625 -19.21875 L 28.78125 -17.859375 L 30.640625 -16.984375 L 35.90625 -15.03125 L 41.375 -14.921875 L 43.421875 -15.125 L 45.375 -15.703125 L 48.6875 -17.375 L 52.40625 -21.375 L 53.1875 -23.03125 L 55.125 -24.875 L 57.28125 -25.859375 L 67.71875 -25.765625 L 70.15625 -24.6875 L 70.75 -22.9375 L 70.453125 -21.078125 L 69.765625 -19.125 L 69.28125 -17.265625 L 68.40625 -15.515625 L 65.46875 -10.4375 L 63.8125 -9.171875 L 62.75 -7.515625 L 61.46875 -6.25 L 59.8125 -5.078125 L 58.0625 -4 L 56.59375 -3.03125 L 51.234375 -0.6875 L 41.765625 1.265625 Z M 35.90625 0.96875 "/></g></g><g style="fill:#eab31b;fill-opacity:1;"><g transform="translate(444.772161, 110.335953)"><path style="stroke:none" d="M 7.421875 -2.734375 L 7.21875 -12.6875 L 7.421875 -14.640625 L 7.125 -16.390625 L 7.421875 -18.34375 L 7.21875 -20.484375 L 7.515625 -25.078125 L 7.3125 -27.328125 L 7.515625 -30.34375 L 7.21875 -32.203125 L 7.21875 -37.859375 L 7.421875 -39.90625 L 7.03125 -45.859375 L 7.421875 -47.8125 L 7.21875 -49.46875 L 7.515625 -51.625 L 7.03125 -57.46875 L 7.3125 -59.328125 L 7.125 -61.46875 L 7.125 -63.328125 L 7.421875 -65.46875 L 8.484375 -67.140625 L 11.515625 -68.015625 L 13.375 -68.203125 L 15.3125 -68.015625 L 21.078125 -68.203125 L 24.109375 -67.234375 L 25.265625 -65.1875 L 25.171875 -63.515625 L 25.46875 -53.859375 L 25.265625 -52.109375 L 25.265625 -46.25 L 26.046875 -44.390625 L 28.109375 -43.515625 L 37.5625 -43.625 L 39.328125 -43.421875 L 43.234375 -43.421875 L 44.890625 -44.390625 L 45.953125 -46.34375 L 45.953125 -52.015625 L 46.34375 -53.671875 L 46.15625 -64.296875 L 46.9375 -67.140625 L 49.859375 -68.015625 L 51.8125 -68.015625 L 54.9375 -68.296875 L 59.90625 -68.203125 L 62.9375 -67.234375 L 63.90625 -65.28125 L 64.109375 -63.328125 L 63.71875 -61.375 L 63.90625 -59.515625 L 64.296875 -57.671875 L 63.8125 -49.5625 L 64.109375 -40 L 63.90625 -37.859375 L 64.015625 -34.15625 L 63.71875 -32.109375 L 63.71875 -30.15625 L 63.90625 -28.109375 L 63.8125 -26.15625 L 64.203125 -22.4375 L 64.203125 -6.734375 L 63.8125 -2.734375 L 62.75 -0.875 L 60.796875 0.1875 L 54.0625 0.1875 L 51.125 -0.09375 L 49.171875 0.09375 L 47.234375 -0.875 L 46.25 -2.921875 L 45.953125 -6.734375 L 46.34375 -9.65625 L 45.953125 -16.59375 L 46.25 -18.4375 L 45.953125 -24.390625 L 44.984375 -26.34375 L 43.234375 -27.328125 L 41.375 -27.328125 L 39.421875 -27.515625 L 37.46875 -27.328125 L 31.71875 -27.328125 L 29.953125 -27.515625 L 27.90625 -27.515625 L 25.953125 -26.34375 L 24.984375 -24.296875 L 25.265625 -16.59375 L 25.078125 -14.546875 L 25.171875 -12.390625 L 24.984375 -10.53125 L 25.171875 -8.59375 L 24.984375 -6.828125 L 25.265625 -4.6875 L 25.171875 -2.734375 L 24.390625 -0.78125 L 22.25 0.09375 L 20.203125 0.296875 L 18.15625 0 L 15.3125 -0.09375 L 12.296875 0.1875 L 10.4375 0.1875 L 8.203125 -0.6875 Z M 7.421875 -2.734375 "/></g></g><g style="fill:#eab31b;fill-opacity:1;"><g transform="translate(512.583253, 110.335953)"><path style="stroke:none" d="M 1.265625 -2.640625 L 2.4375 -6.734375 L 3.3125 -8.6875 L 4.484375 -10.25 L 7.3125 -17.375 L 10.046875 -22.4375 L 10.734375 -24.390625 L 11.609375 -25.953125 L 12.203125 -28 L 13.5625 -30.546875 L 14.25 -32.390625 L 15.703125 -34.9375 L 17.265625 -38.453125 L 18.34375 -40.203125 L 18.828125 -41.859375 L 24.296875 -54.15625 L 25.375 -55.90625 L 29.5625 -64.6875 L 30.15625 -66.453125 L 32 -68.203125 L 35.125 -69.1875 L 38.453125 -68.296875 L 40.203125 -66.453125 L 40.78125 -64.59375 L 41.671875 -63.140625 L 43.234375 -59.421875 L 45.171875 -55.8125 L 46.640625 -52.40625 L 47.125 -50.84375 L 48.890625 -47.125 L 49.46875 -45.28125 L 51.421875 -41.859375 L 51.90625 -40 L 52.890625 -38.34375 L 53.671875 -36.6875 L 54.734375 -34.9375 L 55.328125 -32.984375 L 56.203125 -31.515625 L 56.890625 -29.5625 L 57.765625 -27.90625 L 58.546875 -25.953125 L 59.625 -24.390625 L 60.984375 -20.78125 L 61.96875 -19.125 L 62.640625 -17.265625 L 64.296875 -13.765625 L 64.890625 -11.90625 L 65.859375 -10.4375 L 66.453125 -8.484375 L 67.71875 -6.828125 L 68.40625 -5.078125 L 68.984375 -2.640625 L 68.59375 -0.578125 L 66.84375 0 L 60.796875 0.1875 L 57.375 -0.09375 L 55.625 0.09375 L 53.078125 -0.875 L 51.421875 -2.4375 L 50.34375 -4.203125 L 49.859375 -5.953125 L 47.8125 -7.515625 L 44.59375 -8.59375 L 40 -8.390625 L 37.953125 -8.59375 L 36.203125 -8.59375 L 33.953125 -8.296875 L 31.90625 -8.59375 L 26.4375 -8.484375 L 24.484375 -8.6875 L 22.15625 -7.703125 L 20.484375 -5.859375 L 18.828125 -2.53125 L 17.078125 -0.78125 L 14.828125 0.1875 L 12.296875 -0.09375 L 3.703125 -0.09375 L 1.75 -0.578125 Z M 31.421875 -24.109375 L 39.03125 -24.203125 L 40.6875 -24.984375 L 40.890625 -26.734375 L 40.203125 -28.5 L 39.21875 -30.4375 L 38.84375 -32 L 37.765625 -33.671875 L 36.5 -37.46875 L 35.328125 -38.25 L 34.0625 -37.28125 L 33.171875 -35.71875 L 29.265625 -26.828125 L 29.5625 -24.875 Z M 31.421875 -24.109375 "/></g></g><g style="fill:#69554c;fill-opacity:1;"><g transform="translate(575.613783, 110.335953)"><path style="stroke:none" d="M 23.8125 -1.953125 L 22.25 -5.65625 L 21.265625 -9.46875 L 14.046875 -27.71875 L 13.765625 -29.5625 L 12.78125 -31.609375 L 12.484375 -33.46875 L 10.25 -38.84375 L 9.859375 -40.59375 L 8.984375 -42.546875 L 8.484375 -44.296875 L 7.609375 -46.15625 L 5.75 -51.71875 L 4.78125 -53.375 L 4.296875 -55.421875 L 3.421875 -57.1875 L 2.25 -60.796875 L 1.359375 -62.640625 L 0.875 -65.1875 L 1.359375 -67.421875 L 3.421875 -68.109375 L 7.125 -68.109375 L 8.6875 -68.296875 L 14.828125 -68.203125 L 16.484375 -68.40625 L 18.9375 -67.234375 L 20.484375 -65.46875 L 20.984375 -63.515625 L 21.5625 -61.765625 L 21.953125 -59.71875 L 23.421875 -55.90625 L 24.390625 -54.0625 L 29.953125 -32.5 L 30.546875 -32.59375 L 31.609375 -34.546875 L 31.90625 -36.203125 L 32.984375 -38.25 L 33.671875 -40.109375 L 33.953125 -41.953125 L 36.109375 -47.421875 L 36.6875 -49.5625 L 39.421875 -56.6875 L 40.296875 -60.5 L 42.0625 -64.296875 L 43.234375 -66.25 L 45.375 -67.328125 L 47.234375 -67.234375 L 49.765625 -66.359375 L 51.234375 -64.40625 L 55.328125 -53.1875 L 55.625 -51.234375 L 56.5 -49.28125 L 56.890625 -47.421875 L 60.40625 -38.0625 L 60.6875 -36.203125 L 61.765625 -34.546875 L 62.0625 -32.78125 L 62.9375 -32.59375 L 67.234375 -49.46875 L 68.40625 -52.40625 L 68.890625 -54.15625 L 69.765625 -56.109375 L 71.421875 -61.859375 L 72.3125 -63.515625 L 72.796875 -65.46875 L 74.25 -67.234375 L 76.5 -68.296875 L 78.25 -68.203125 L 88.890625 -68.40625 L 91.921875 -67.625 L 92.3125 -65.28125 L 89.765625 -57.078125 L 88.703125 -55.421875 L 86.9375 -49.859375 L 85.96875 -48.109375 L 85.578125 -46.25 L 84.703125 -44.296875 L 83.71875 -40.6875 L 82.65625 -38.84375 L 80.40625 -31.609375 L 78.25 -27.125 L 77.484375 -24.296875 L 76.703125 -22.25 L 76.3125 -20.390625 L 75.328125 -18.640625 L 74.0625 -14.734375 L 72.5 -11.3125 L 71.421875 -7.515625 L 69.671875 -3.90625 L 69.28125 -2.046875 L 67.625 -0.296875 L 65.1875 0.578125 L 61.859375 0.78125 L 59.625 -0.09375 L 57.859375 -2.25 L 56.40625 -5.75 L 56.015625 -7.609375 L 55.328125 -9.375 L 54.25 -11.3125 L 52.796875 -14.921875 L 52.203125 -16.78125 L 50.640625 -20.296875 L 50.15625 -22.25 L 49.28125 -24.109375 L 48.296875 -25.953125 L 47.8125 -27.609375 L 46.84375 -29.5625 L 46.0625 -29.46875 L 45.46875 -27.71875 L 43.71875 -23.90625 L 43.328125 -22.25 L 39.421875 -12.984375 L 38.9375 -11.03125 L 38.15625 -9.46875 L 36.78125 -5.5625 L 35.03125 -2.140625 L 33.46875 -0.1875 L 31.21875 0.578125 L 27.421875 0.578125 L 25.265625 -0.09375 Z M 23.8125 -1.953125 "/></g></g><g style="fill:#69554c;fill-opacity:1;"><g transform="translate(665.085495, 110.335953)"><path style="stroke:none" d="M 7.03125 -2.828125 L 7.421875 -4.78125 L 7.515625 -6.734375 L 7.3125 -10.53125 L 7.3125 -12.484375 L 7.125 -14.734375 L 7.421875 -16.484375 L 7.3125 -18.34375 L 7.515625 -20.484375 L 7.21875 -22.546875 L 7.421875 -26.4375 L 7.125 -30.25 L 7.421875 -32.296875 L 7.421875 -49.765625 L 7.21875 -51.515625 L 7.421875 -53.578125 L 7.03125 -58.546875 L 7.421875 -61.375 L 7.21875 -65.28125 L 8.203125 -67.421875 L 11.03125 -68.109375 L 23.8125 -68.40625 L 25.5625 -68.203125 L 29.375 -68.296875 L 31.328125 -68.109375 L 35.609375 -68.296875 L 37.5625 -68.015625 L 39.328125 -68.203125 L 47.125 -68.109375 L 49.171875 -67.234375 L 50.15625 -65.28125 L 49.859375 -63.421875 L 49.765625 -61.28125 L 50.0625 -59.421875 L 50.25 -55.421875 L 49.171875 -53.671875 L 47.125 -52.59375 L 28.390625 -52.5 L 25.375 -51.625 L 24.390625 -48.78125 L 24.59375 -45.765625 L 25.765625 -44 L 27.421875 -42.9375 L 35.125 -43.03125 L 37.375 -42.84375 L 39.421875 -42.84375 L 41.375 -43.03125 L 45.28125 -42.9375 L 46.9375 -41.859375 L 47.8125 -40 L 48.015625 -38.0625 L 47.8125 -30.34375 L 46.84375 -28.5 L 44.890625 -27.421875 L 43.125 -27.328125 L 41.078125 -27.515625 L 38.453125 -27.328125 L 33.28125 -27.609375 L 31.328125 -27.421875 L 27.515625 -27.421875 L 25.765625 -26.34375 L 24.875 -24.296875 L 24.78125 -19.515625 L 25.65625 -16.484375 L 27.71875 -15.3125 L 29.859375 -15.515625 L 32 -15.3125 L 33.859375 -15.609375 L 46.734375 -15.421875 L 49.671875 -14.4375 L 50.9375 -12.484375 L 50.734375 -10.640625 L 50.84375 -4.59375 L 50.640625 -2.734375 L 49.765625 -0.875 L 47.71875 0.09375 L 45.859375 0.296875 L 39.90625 -0.09375 L 33.953125 0.1875 L 32.203125 -0.09375 L 10.140625 0.09375 L 8.296875 -0.96875 Z M 7.03125 -2.828125 "/></g></g><g style="fill:#69554c;fill-opacity:1;"><g transform="translate(717.382909, 110.335953)"><path style="stroke:none" d="M 7.125 -2.921875 L 7.03125 -6.640625 L 7.421875 -12.484375 L 7.125 -16.484375 L 7.3125 -24.484375 L 7.125 -26.34375 L 7.125 -30.25 L 7.3125 -32.109375 L 7.03125 -34.15625 L 7.03125 -41.953125 L 7.21875 -43.8125 L 7.125 -45.859375 L 7.3125 -47.71875 L 7.125 -49.765625 L 7.421875 -51.8125 L 7.03125 -58.359375 L 7.21875 -61.1875 L 7.03125 -65.375 L 7.90625 -67.421875 L 9.859375 -68.296875 L 39.21875 -68.109375 L 44.6875 -66.84375 L 48.296875 -64.890625 L 51.234375 -62.84375 L 52.59375 -61.46875 L 54.9375 -58.359375 L 55.515625 -56.5 L 56.5 -54.640625 L 57.578125 -51.03125 L 57.671875 -48.203125 L 56.296875 -41.171875 L 55.125 -39.515625 L 54.0625 -37.5625 L 53.671875 -35.609375 L 54.546875 -33.46875 L 56.015625 -32 L 57.375 -30.34375 L 59.125 -26.9375 L 59.8125 -24.875 L 60.203125 -23.03125 L 60.109375 -15.21875 L 59.328125 -13.265625 L 58.9375 -11.609375 L 58.0625 -9.75 L 55.8125 -6.53125 L 54.25 -5.078125 L 52.984375 -4.09375 L 49.28125 -1.953125 L 46.0625 -0.6875 L 42.34375 -0.1875 L 10.046875 0.1875 L 8.203125 -0.6875 Z M 27.125 -41.859375 L 34.4375 -41.859375 L 37.765625 -42.546875 L 39.421875 -44.109375 L 39.90625 -47.03125 L 39.609375 -49.671875 L 38.34375 -51.03125 L 37.171875 -51.8125 L 34.15625 -52.40625 L 27.125 -52.6875 L 25.078125 -51.625 L 24 -49.953125 L 24.203125 -48.109375 L 24.203125 -46.25 L 23.8125 -44.59375 L 24.78125 -42.640625 Z M 26.828125 -15.515625 L 34.4375 -15.421875 L 39.71875 -15.90625 L 41.46875 -16.984375 L 42.734375 -18.34375 L 42.9375 -20.875 L 42.734375 -23.609375 L 41.28125 -24.984375 L 39.8125 -26.046875 L 37.078125 -26.546875 L 26.734375 -26.546875 L 24.78125 -25.5625 L 24.109375 -23.8125 L 24 -21.859375 L 24.203125 -20 L 24.109375 -18.34375 L 25.171875 -16.296875 Z M 26.828125 -15.515625 "/></g></g></g></svg>